<svg xmlns="http://www.w3.org/2000/svg" width="1024" height="1024" viewBox="0 0 1024 1024">
<g>
<path d="M 361.59 552.26 C361.91,552.58 362.01,553.67 361.81,554.67 C361.46,556.41 361.41,556.41 360.70,554.61 C359.94,552.69 360.51,551.18 361.59,552.26 Z" fill="rgb(71,33,107)"/>
<path d="M 610.67 631.16 C609.17,633.55 607.94,633.50 607.29,631.00 C607.00,629.90 606.46,629.00 606.10,629.00 C605.73,629.00 605.35,628.03 605.26,626.84 C605.17,625.65 604.74,624.41 604.30,624.09 C603.86,623.77 603.35,622.60 603.16,621.50 C602.97,620.40 602.43,619.36 601.96,619.19 C601.50,619.01 601.34,618.28 601.61,617.56 C601.89,616.85 601.53,615.64 600.81,614.88 C600.09,614.12 599.47,613.05 599.44,612.50 C599.33,610.38 597.75,606.00 597.10,606.00 C596.73,606.00 596.35,604.99 596.26,603.76 C596.16,602.54 595.64,601.38 595.10,601.20 C594.56,601.02 594.36,600.22 594.66,599.44 C594.97,598.65 594.69,598.00 594.05,598.00 C593.41,598.00 593.16,597.55 593.50,597.00 C593.84,596.45 593.66,596.00 593.09,596.00 C592.53,596.00 592.32,595.33 592.64,594.50 C592.95,593.67 592.81,593.00 592.32,593.00 C591.83,593.00 591.35,591.99 591.26,590.76 C591.16,589.54 590.64,588.38 590.10,588.20 C589.56,588.02 589.36,587.22 589.66,586.44 C589.97,585.65 589.72,585.00 589.11,585.00 C588.50,585.00 588.05,584.66 588.12,584.25 C588.18,583.84 588.15,583.28 588.04,583.00 C587.94,582.72 587.65,581.39 587.40,580.04 C587.15,578.69 586.47,577.29 585.89,576.93 C585.31,576.57 584.87,575.99 584.91,575.64 C584.96,575.29 584.97,574.89 584.93,574.75 C584.88,574.61 584.65,573.38 584.40,572.00 C584.15,570.62 583.53,569.36 583.03,569.19 C582.52,569.01 582.36,568.22 582.66,567.44 C582.97,566.65 582.72,566.00 582.11,566.00 C581.50,566.00 581.05,565.66 581.12,565.25 C581.18,564.84 581.15,564.28 581.04,564.00 C580.94,563.72 580.65,562.38 580.40,561.00 C580.15,559.62 579.53,558.36 579.03,558.19 C578.52,558.01 578.36,557.22 578.66,556.44 C578.97,555.65 578.73,555.00 578.14,555.00 C577.55,555.00 577.32,554.33 577.64,553.50 C577.95,552.67 577.81,552.00 577.32,552.00 C576.83,552.00 576.36,551.16 576.29,550.14 C576.21,549.12 575.37,546.53 574.41,544.39 C573.46,542.25 572.58,540.16 572.47,539.75 C572.35,539.34 572.14,538.78 572.00,538.50 C571.86,538.22 571.64,537.55 571.50,537.00 C571.36,536.45 571.16,535.89 571.05,535.75 C570.94,535.61 570.65,534.38 570.40,533.00 C570.15,531.62 569.53,530.36 569.03,530.19 C568.52,530.01 568.36,529.22 568.66,528.44 C568.97,527.65 568.72,527.00 568.11,527.00 C567.50,527.00 567.10,526.66 567.22,526.25 C567.63,524.88 564.76,516.00 563.90,516.00 C563.44,516.00 563.32,515.33 563.64,514.50 C563.95,513.67 563.72,513.00 563.11,513.00 C562.50,513.00 562.05,512.66 562.12,512.25 C562.18,511.84 562.13,511.16 561.99,510.75 C561.73,509.93 561.73,509.93 560.61,505.25 C560.19,503.46 559.44,502.00 558.95,502.00 C558.46,502.00 558.32,501.33 558.64,500.50 C558.95,499.67 558.73,499.00 558.14,499.00 C557.55,499.00 557.32,498.33 557.64,497.50 C557.95,496.67 557.72,496.00 557.11,496.00 C556.50,496.00 556.05,495.66 556.12,495.25 C556.18,494.84 556.13,494.16 555.99,493.75 C555.73,492.93 555.73,492.93 554.61,488.25 C554.19,486.46 553.43,485.00 552.92,485.00 C552.41,485.00 552.05,484.66 552.12,484.25 C552.18,483.84 552.13,483.16 551.99,482.75 C551.86,482.34 551.64,481.55 551.50,481.00 C551.36,480.45 551.14,479.77 551.00,479.50 C550.86,479.23 550.67,478.66 550.57,478.25 C550.47,477.84 550.04,476.04 549.61,474.25 C549.19,472.46 548.44,471.00 547.95,471.00 C547.46,471.00 547.32,470.33 547.64,469.50 C547.95,468.67 547.69,468.00 547.05,468.00 C546.41,468.00 546.14,467.58 546.46,467.07 C546.77,466.56 546.59,465.87 546.06,465.54 C545.53,465.21 545.34,464.28 545.65,463.47 C545.96,462.66 545.72,462.00 545.11,462.00 C544.50,462.00 544.11,461.66 544.25,461.24 C544.67,459.97 539.70,445.00 538.86,445.00 C538.42,445.00 538.32,444.33 538.64,443.50 C538.95,442.67 538.73,442.00 538.14,442.00 C537.55,442.00 537.32,441.33 537.64,440.50 C537.95,439.67 537.72,439.00 537.11,439.00 C536.50,439.00 536.11,438.51 536.25,437.91 C536.39,437.31 535.23,435.85 533.68,434.66 C531.08,432.67 529.49,432.47 513.04,432.17 L 495.23 431.84 L 497.74 441.17 C500.92,452.94 502.78,460.84 504.23,468.63 C505.32,474.52 505.23,475.12 502.10,483.13 C500.30,487.74 498.36,492.85 497.80,494.50 C497.24,496.15 496.15,498.77 495.39,500.33 C494.63,501.89 494.00,503.82 494.00,504.63 C494.00,505.44 493.13,507.89 492.07,510.09 C491.01,512.29 489.85,515.41 489.49,517.03 C489.14,518.65 488.43,520.23 487.92,520.55 C487.42,520.86 487.00,522.00 487.00,523.07 C487.00,524.15 486.57,525.81 486.03,526.76 C485.50,527.72 483.65,532.78 481.92,538.00 C477.72,550.64 465.22,585.98 464.05,588.50 C463.54,589.60 462.82,591.62 462.45,593.00 C462.08,594.38 461.21,596.85 460.52,598.50 C459.83,600.15 457.77,606.00 455.94,611.50 C454.11,617.00 451.83,623.53 450.89,626.00 C449.21,630.37 449.13,630.43 448.21,628.00 C447.69,626.62 447.48,624.94 447.74,624.25 C448.00,623.56 447.81,623.00 447.32,623.00 C446.83,623.00 446.36,622.21 446.29,621.25 C446.21,620.29 445.60,618.15 444.92,616.50 C444.24,614.85 443.77,612.94 443.88,612.25 C444.00,611.56 443.63,611.00 443.08,611.00 C442.52,611.00 442.32,610.33 442.64,609.50 C442.95,608.67 442.83,608.00 442.36,608.00 C441.89,608.00 441.43,606.99 441.35,605.75 C441.26,604.51 440.63,602.15 439.94,600.50 C439.25,598.85 438.77,596.94 438.88,596.25 C439.00,595.56 438.59,595.00 437.98,595.00 C437.38,595.00 437.16,594.55 437.50,594.00 C437.84,593.45 437.77,592.44 437.33,591.75 C436.90,591.06 436.40,589.38 436.21,588.00 C436.03,586.62 435.48,585.36 434.99,585.19 C434.51,585.01 434.34,584.27 434.62,583.54 C434.91,582.80 434.68,581.92 434.11,581.57 C433.55,581.22 433.34,580.28 433.65,579.47 C433.96,578.66 433.73,578.00 433.14,578.00 C432.55,578.00 432.32,577.33 432.64,576.50 C432.95,575.67 432.77,575.00 432.22,575.00 C431.67,575.00 431.27,574.44 431.32,573.75 C431.49,571.44 429.79,565.00 429.00,565.00 C428.57,565.00 428.27,564.44 428.32,563.75 C428.50,561.33 426.77,555.00 425.92,555.00 C425.45,555.00 425.32,554.33 425.64,553.50 C425.96,552.67 425.67,552.00 425.00,552.00 C424.33,552.00 424.03,551.37 424.32,550.60 C424.62,549.83 424.56,548.89 424.18,548.51 C423.81,548.14 423.44,547.42 423.38,546.92 C423.31,546.41 423.16,545.89 423.06,545.75 C422.95,545.61 422.66,543.92 422.42,542.00 C422.17,540.08 421.52,538.35 420.98,538.16 C420.43,537.98 420.25,537.40 420.58,536.87 C420.91,536.34 420.63,535.26 419.96,534.46 C419.30,533.66 419.09,533.00 419.50,533.00 C419.91,533.00 419.74,532.40 419.13,531.66 C418.52,530.92 418.25,530.08 418.54,529.80 C418.82,529.51 418.52,527.98 417.87,526.39 C417.21,524.80 416.77,522.94 416.88,522.25 C417.00,521.56 416.73,521.00 416.29,521.00 C415.86,521.00 415.40,519.54 415.27,517.76 C415.15,515.97 414.58,514.36 414.01,514.17 C413.45,513.98 413.22,513.46 413.50,513.00 C413.78,512.54 413.49,510.89 412.85,509.33 C412.20,507.78 411.77,505.94 411.88,505.25 C412.00,504.56 411.59,504.00 410.98,504.00 C410.38,504.00 410.11,503.63 410.39,503.17 C410.86,502.41 408.90,494.63 407.33,491.00 C406.98,490.17 406.78,488.94 406.89,488.25 C407.00,487.56 406.59,487.00 405.98,487.00 C405.38,487.00 405.14,486.59 405.45,486.08 C405.76,485.58 405.49,483.89 404.85,482.33 C404.20,480.78 403.77,478.94 403.88,478.25 C404.00,477.56 403.63,477.00 403.08,477.00 C402.52,477.00 402.32,476.33 402.64,475.50 C402.95,474.67 402.73,474.00 402.14,474.00 C401.55,474.00 401.30,473.37 401.60,472.60 C401.89,471.83 401.65,470.90 401.05,470.53 C400.46,470.16 400.21,469.47 400.50,469.00 C400.79,468.53 400.59,467.87 400.06,467.54 C399.53,467.21 399.34,466.28 399.65,465.47 C399.96,464.66 399.69,464.00 399.05,464.00 C398.41,464.00 398.13,463.61 398.42,463.12 C399.04,462.12 396.24,451.95 394.99,450.63 C394.53,450.15 394.39,449.14 394.69,448.38 C394.98,447.62 394.83,447.00 394.36,447.00 C393.89,447.00 393.43,445.78 393.34,444.28 C393.26,442.78 392.69,441.40 392.09,441.20 C391.48,440.99 391.21,440.47 391.48,440.04 C392.09,439.05 388.12,434.70 385.48,433.47 C384.39,432.96 363.92,432.29 340.00,431.99 C301.41,431.50 296.07,431.24 292.71,429.69 C290.62,428.72 288.64,427.16 288.30,426.22 C287.96,425.27 287.22,423.90 286.65,423.17 C286.08,422.43 285.46,420.86 285.28,419.67 C284.72,416.06 284.97,378.86 285.56,377.90 C285.87,377.40 285.84,376.55 285.50,376.00 C285.16,375.45 285.39,375.00 286.00,375.00 C286.61,375.00 286.84,374.55 286.50,374.00 C286.16,373.45 286.36,373.00 286.94,373.00 C287.52,373.00 288.02,372.44 288.04,371.75 C288.08,370.10 294.86,365.00 296.99,365.00 C297.91,365.00 298.92,364.75 299.23,364.43 C299.54,364.12 324.26,363.90 354.15,363.94 C404.66,364.00 415.72,363.51 409.47,361.46 C405.61,360.20 403.43,359.32 398.00,356.84 C386.02,351.38 380.53,348.53 379.00,347.00 C378.73,346.72 377.26,345.86 375.75,345.08 C374.24,344.30 373.00,343.29 373.00,342.83 C373.00,342.37 372.43,342.00 371.72,342.00 C371.02,342.00 369.72,341.21 368.82,340.25 C367.93,339.29 364.27,335.67 360.69,332.20 C357.11,328.74 353.93,325.25 353.62,324.45 C353.31,323.65 352.60,323.00 352.03,323.00 C351.46,323.00 351.00,322.31 351.00,321.47 C351.00,320.63 350.33,319.68 349.51,319.36 C348.68,319.05 348.26,318.39 348.56,317.90 C348.87,317.40 348.64,317.00 348.06,317.00 C347.48,317.00 347.00,316.33 347.00,315.50 C347.00,314.67 346.52,314.00 345.94,314.00 C345.36,314.00 345.16,313.55 345.50,313.00 C345.84,312.45 345.61,312.00 345.00,312.00 C344.39,312.00 344.16,311.55 344.50,311.00 C344.84,310.45 344.61,310.00 344.00,310.00 C343.39,310.00 343.16,309.55 343.50,309.00 C343.84,308.45 343.74,308.00 343.27,308.00 C342.81,308.00 342.35,306.99 342.26,305.76 C342.16,304.54 341.64,303.38 341.10,303.20 C340.56,303.02 340.36,302.22 340.66,301.44 C340.97,300.65 340.73,300.00 340.14,300.00 C339.55,300.00 339.30,299.37 339.60,298.60 C339.89,297.83 339.68,296.92 339.11,296.57 C338.55,296.22 338.33,295.30 338.63,294.52 C338.93,293.73 338.88,292.62 338.52,292.03 C337.60,290.55 337.54,273.55 338.44,272.09 C338.85,271.44 338.93,270.27 338.63,269.48 C338.33,268.70 338.55,267.78 339.11,267.43 C339.68,267.08 339.89,266.17 339.60,265.40 C339.30,264.63 339.55,264.00 340.14,264.00 C340.73,264.00 340.95,263.33 340.64,262.50 C340.32,261.67 340.53,261.00 341.09,261.00 C341.66,261.00 341.84,260.55 341.50,260.00 C341.16,259.45 341.31,259.00 341.84,259.00 C342.70,259.00 344.60,254.91 344.79,252.66 C344.83,252.20 345.68,251.20 346.68,250.44 C347.68,249.68 348.10,249.05 347.62,249.03 C347.13,249.01 347.92,248.07 349.37,246.93 C350.81,245.79 352.00,244.32 352.01,243.68 C352.02,243.03 353.18,241.60 354.60,240.50 C356.02,239.40 358.28,237.49 359.63,236.25 C360.99,235.01 362.48,234.00 362.96,234.00 C363.44,234.00 363.98,233.66 364.17,233.25 C364.77,231.90 377.09,225.94 378.06,226.54 C378.58,226.86 379.00,226.71 379.00,226.21 C379.00,225.71 380.34,225.27 381.99,225.22 C383.63,225.17 385.54,224.77 386.24,224.33 C386.93,223.89 388.62,223.46 390.00,223.38 C391.38,223.30 394.85,222.89 397.73,222.48 C401.44,221.95 403.41,222.09 404.48,222.99 C405.39,223.74 407.21,224.01 409.00,223.65 C410.86,223.28 412.00,223.46 412.00,224.13 C412.00,224.79 412.99,224.97 414.50,224.59 C416.06,224.20 417.00,224.39 417.00,225.09 C417.00,225.71 417.67,225.95 418.50,225.64 C419.33,225.32 420.00,225.55 420.00,226.14 C420.00,226.73 420.65,226.97 421.44,226.66 C422.22,226.36 423.02,226.56 423.20,227.10 C423.38,227.64 424.54,228.16 425.76,228.26 C426.99,228.35 428.00,228.73 428.00,229.10 C428.00,229.47 429.58,230.07 431.50,230.43 C433.42,230.80 435.00,231.51 435.00,232.03 C435.00,232.54 436.12,233.24 437.50,233.59 C438.88,233.93 440.00,234.62 440.00,235.11 C440.00,235.60 440.47,236.00 441.04,236.00 C441.61,236.00 443.05,236.90 444.23,238.00 C445.41,239.10 446.92,240.00 447.58,240.00 C448.24,240.00 449.06,240.70 449.39,241.56 C449.72,242.42 450.44,242.85 450.99,242.50 C451.55,242.16 452.00,242.37 452.00,242.97 C452.00,243.57 452.79,244.39 453.75,244.80 C455.86,245.68 461.22,250.40 469.33,258.50 C474.63,263.79 478.14,267.85 486.77,278.66 C491.04,284.01 502.31,301.30 506.98,309.67 C511.44,317.65 511.73,317.95 513.33,316.19 C514.25,315.17 515.00,313.80 515.00,313.13 C515.00,312.46 515.88,310.97 516.97,309.81 C518.05,308.65 518.69,307.32 518.41,306.85 C518.12,306.38 518.39,306.00 519.00,306.00 C519.61,306.00 519.87,305.60 519.56,305.10 C519.26,304.61 519.71,303.94 520.57,303.61 C521.43,303.28 521.85,302.56 521.50,302.01 C521.16,301.45 521.36,301.00 521.94,301.00 C522.52,301.00 523.00,300.53 523.00,299.96 C523.00,299.39 523.83,298.03 524.84,296.94 C525.85,295.86 527.31,293.74 528.09,292.23 C528.86,290.73 530.07,289.13 530.77,288.69 C531.47,288.24 531.81,287.50 531.53,287.04 C531.24,286.58 531.68,285.95 532.51,285.64 C533.33,285.32 534.00,284.42 534.00,283.64 C534.00,282.85 534.74,281.93 535.64,281.58 C536.55,281.24 537.00,280.67 536.65,280.32 C536.30,279.97 536.91,279.05 538.01,278.28 C539.10,277.51 540.00,276.35 540.00,275.68 C540.00,275.02 540.90,273.92 542.00,273.23 C543.10,272.55 544.00,271.57 544.00,271.08 C544.00,268.81 566.93,246.00 569.21,246.00 C569.68,246.00 570.32,245.32 570.64,244.50 C570.95,243.68 571.85,243.00 572.64,243.00 C573.42,243.00 574.32,242.32 574.64,241.50 C574.95,240.68 575.84,240.00 576.61,240.00 C577.37,240.00 578.00,239.55 578.00,239.00 C578.00,238.45 578.67,238.00 579.50,238.00 C580.33,238.00 581.90,237.10 583.00,236.00 C584.10,234.90 585.65,234.00 586.44,234.00 C587.23,234.00 588.13,233.60 588.44,233.10 C589.34,231.64 596.90,228.00 599.03,228.00 C600.11,228.00 601.00,227.50 601.00,226.89 C601.00,226.28 601.67,226.05 602.50,226.36 C603.33,226.68 604.00,226.45 604.00,225.86 C604.00,225.27 604.65,225.04 605.44,225.34 C606.24,225.64 608.37,225.42 610.19,224.85 C614.25,223.57 638.00,223.07 638.00,224.27 C638.00,224.75 638.90,224.85 640.00,224.50 C641.22,224.11 642.00,224.32 642.00,225.04 C642.00,225.69 642.67,225.95 643.50,225.64 C644.33,225.32 645.00,225.50 645.00,226.03 C645.00,226.56 645.51,227.00 646.12,227.00 C648.29,227.00 659.52,232.47 661.99,234.73 C663.36,235.98 664.75,237.00 665.07,237.00 C666.07,237.00 673.39,244.28 676.14,248.00 C684.21,258.95 687.50,270.34 686.68,284.50 C685.84,298.92 680.50,313.25 672.51,322.50 C665.63,330.46 653.55,342.00 652.08,342.00 C651.58,342.00 651.02,342.36 650.83,342.80 C650.28,344.14 638.20,351.12 626.04,357.14 L 614.59 362.80 L 620.04 363.45 C623.04,363.81 647.66,363.97 674.75,363.80 C701.84,363.64 724.00,363.89 724.00,364.36 C724.00,364.83 724.67,364.95 725.50,364.64 C726.33,364.32 727.00,364.50 727.00,365.03 C727.00,365.56 727.71,366.00 728.57,366.00 C730.96,366.00 736.85,372.81 737.98,376.88 C738.54,378.87 738.99,389.18 738.99,399.80 C739.00,420.39 738.51,422.89 733.57,427.50 C728.85,431.90 727.79,432.00 685.95,432.00 C646.24,432.00 646.00,432.01 646.00,434.07 C646.00,438.37 651.79,445.40 654.48,444.37 C655.21,444.09 656.10,444.35 656.47,444.95 C656.84,445.54 657.56,445.77 658.07,445.46 C658.58,445.14 659.00,445.39 659.00,446.00 C659.00,446.61 659.45,446.84 660.00,446.50 C660.55,446.16 661.00,446.39 661.00,447.00 C661.00,447.61 661.41,447.86 661.92,447.55 C663.23,446.74 666.80,451.61 668.12,455.99 C669.31,459.97 667.96,467.64 664.43,477.00 C662.06,483.29 652.48,510.88 649.33,520.50 C647.89,524.90 646.48,529.17 646.19,530.00 C645.91,530.83 645.60,531.72 645.50,532.00 C645.40,532.28 645.06,533.17 644.74,534.00 C644.41,534.83 641.66,542.92 638.61,552.00 C633.40,567.54 623.74,595.49 615.49,618.91 C613.47,624.63 611.30,630.15 610.67,631.16 ZM 690.00 720.02 L 685.50 722.50 L 647.00 722.66 C625.83,722.75 607.76,722.61 606.86,722.36 C605.17,721.88 604.72,717.00 606.36,717.00 C606.83,717.00 606.96,716.34 606.65,715.53 C606.34,714.72 606.53,713.79 607.06,713.46 C607.59,713.13 607.77,712.44 607.46,711.93 C607.14,711.42 607.41,711.00 608.05,711.00 C608.69,711.00 608.95,710.33 608.64,709.50 C608.32,708.67 608.55,708.00 609.14,708.00 C609.73,708.00 609.95,707.33 609.64,706.50 C609.32,705.67 609.44,705.00 609.90,705.00 C610.76,705.00 613.63,696.12 613.22,694.75 C613.10,694.34 613.50,694.00 614.11,694.00 C614.72,694.00 614.95,693.33 614.64,692.50 C614.32,691.67 614.55,691.00 615.14,691.00 C615.73,691.00 615.95,690.33 615.64,689.50 C615.32,688.67 615.55,688.00 616.14,688.00 C616.73,688.00 616.95,687.33 616.64,686.50 C616.32,685.67 616.55,685.00 617.14,685.00 C617.73,685.00 617.95,684.33 617.64,683.50 C617.32,682.67 617.42,682.00 617.86,682.00 C618.70,682.00 623.67,667.03 623.25,665.76 C623.11,665.34 623.50,665.00 624.11,665.00 C624.72,665.00 624.95,664.33 624.64,663.50 C624.32,662.67 624.55,662.00 625.14,662.00 C625.73,662.00 625.95,661.33 625.64,660.50 C625.32,659.67 625.55,659.00 626.14,659.00 C626.73,659.00 626.95,658.33 626.64,657.50 C626.32,656.67 626.55,656.00 627.14,656.00 C627.73,656.00 627.95,655.33 627.64,654.50 C627.32,653.67 627.55,653.00 628.14,653.00 C628.73,653.00 628.95,652.33 628.64,651.50 C628.32,650.67 628.55,650.00 629.14,650.00 C629.73,650.00 629.95,649.33 629.64,648.50 C629.32,647.67 629.55,647.00 630.14,647.00 C630.73,647.00 630.95,646.33 630.64,645.50 C630.32,644.67 630.44,644.00 630.90,644.00 C631.55,644.00 633.58,638.46 634.56,634.00 C634.62,633.72 634.95,632.83 635.30,632.00 C637.93,625.67 639.84,619.55 639.40,618.84 C639.12,618.38 639.41,618.00 640.05,618.00 C640.69,618.00 640.95,617.33 640.64,616.50 C640.32,615.67 640.55,615.00 641.14,615.00 C641.73,615.00 641.95,614.33 641.64,613.50 C641.32,612.67 641.42,612.00 641.85,612.00 C642.49,612.00 645.50,603.87 646.47,599.53 C646.60,598.96 647.17,597.38 647.73,596.00 C648.30,594.62 648.57,593.16 648.32,592.75 C648.08,592.34 648.41,592.00 649.05,592.00 C649.69,592.00 649.95,591.33 649.64,590.50 C649.32,589.67 649.55,589.00 650.14,589.00 C650.73,589.00 650.95,588.33 650.64,587.50 C650.32,586.67 650.55,586.00 651.14,586.00 C651.73,586.00 651.95,585.33 651.64,584.50 C651.32,583.67 651.55,583.00 652.14,583.00 C652.73,583.00 652.95,582.33 652.64,581.50 C652.32,580.67 652.44,580.00 652.90,580.00 C653.76,580.00 656.63,571.12 656.22,569.75 C656.10,569.34 656.50,569.00 657.11,569.00 C657.72,569.00 657.98,568.38 657.69,567.62 C657.39,566.86 657.66,565.74 658.28,565.12 C658.90,564.50 659.03,564.00 658.58,564.00 C658.13,564.00 658.32,563.33 659.00,562.50 C659.68,561.67 659.85,560.99 659.37,560.98 C658.89,560.98 659.00,560.64 659.60,560.23 C660.81,559.43 667.57,540.26 667.36,538.25 C667.28,537.56 667.67,537.00 668.22,537.00 C668.77,537.00 668.95,536.33 668.64,535.50 C668.32,534.67 668.55,534.00 669.14,534.00 C669.73,534.00 669.95,533.33 669.64,532.50 C669.32,531.67 669.55,531.00 670.14,531.00 C670.73,531.00 670.95,530.33 670.64,529.50 C670.32,528.67 670.55,528.00 671.14,528.00 C671.73,528.00 671.97,527.35 671.66,526.56 C671.36,525.78 671.58,524.97 672.15,524.78 C672.72,524.59 673.26,523.22 673.34,521.72 C673.43,520.22 673.78,519.00 674.12,519.00 C674.82,519.00 677.57,509.91 677.22,508.75 C677.10,508.34 677.50,508.00 678.11,508.00 C678.72,508.00 678.95,507.33 678.64,506.50 C678.32,505.67 678.55,505.00 679.14,505.00 C679.73,505.00 679.95,504.33 679.64,503.50 C679.32,502.67 679.44,502.00 679.90,502.00 C680.57,502.00 682.79,495.85 683.60,491.75 C683.68,491.34 683.86,490.66 683.99,490.25 C684.13,489.84 684.18,489.16 684.12,488.75 C684.05,488.34 684.50,488.00 685.11,488.00 C685.72,488.00 685.95,487.33 685.64,486.50 C685.32,485.67 685.54,485.00 686.11,485.00 C686.69,485.00 686.98,484.44 686.75,483.76 C686.53,483.08 686.96,481.89 687.73,481.13 C688.49,480.37 688.89,479.15 688.61,478.44 C688.34,477.72 688.56,476.98 689.10,476.80 C689.64,476.62 690.16,475.46 690.26,474.24 C690.35,473.01 690.81,472.00 691.27,472.00 C691.74,472.00 691.84,471.55 691.50,471.00 C691.16,470.45 691.39,470.00 692.00,470.00 C692.61,470.00 692.84,469.55 692.50,469.00 C692.16,468.45 692.36,468.00 692.94,468.00 C693.52,468.00 694.00,467.37 694.00,466.61 C694.00,465.84 694.74,464.93 695.64,464.58 C696.55,464.24 697.06,463.72 696.78,463.44 C695.56,462.23 705.40,454.10 709.58,452.87 C712.01,452.15 714.00,451.16 714.00,450.67 C714.00,450.19 714.73,450.07 715.63,450.41 C716.52,450.75 717.76,450.64 718.38,450.15 C718.99,449.67 720.17,449.26 721.00,449.26 C721.83,449.25 723.36,448.88 724.41,448.45 C726.26,447.69 726.30,448.16 725.64,463.08 C725.27,471.56 724.53,484.58 724.00,492.00 C723.47,499.42 722.58,514.95 722.01,526.50 C721.44,538.05 720.52,554.47 719.98,563.00 C719.44,571.53 718.08,593.58 716.96,612.00 C712.65,682.94 711.64,693.29 708.34,700.34 C703.63,710.40 699.57,714.75 690.00,720.02 ZM 413.58 721.64 C413.16,722.75 406.54,722.99 377.28,722.97 C345.37,722.94 340.93,722.74 336.25,721.12 C333.36,720.12 330.17,718.56 329.17,717.65 C328.16,716.74 327.09,716.00 326.77,716.00 C325.84,716.00 319.00,708.88 319.00,707.90 C319.00,707.41 318.55,707.00 318.00,707.00 C317.45,707.00 317.00,706.33 317.00,705.50 C317.00,704.67 316.65,704.00 316.21,704.00 C315.78,704.00 315.35,702.99 315.26,701.76 C315.16,700.54 314.64,699.38 314.10,699.20 C313.56,699.02 313.36,698.22 313.66,697.44 C313.97,696.65 313.76,696.00 313.20,696.00 C312.64,696.00 312.42,695.10 312.71,694.00 C313.00,692.90 312.76,692.00 312.18,692.00 C311.54,692.00 311.34,690.65 311.69,688.54 C312.00,686.64 311.87,684.28 311.40,683.29 C310.94,682.31 310.52,678.12 310.47,674.00 C310.30,659.71 308.92,631.49 308.29,629.50 C307.95,628.40 307.58,623.90 307.47,619.50 C307.37,615.10 307.03,606.55 306.72,600.50 C305.66,579.53 305.28,571.42 304.63,556.00 C304.27,547.47 303.54,534.20 303.01,526.50 C301.82,509.41 301.09,491.44 301.12,479.72 C301.13,474.90 300.66,469.50 300.08,467.72 C299.43,465.72 299.31,461.46 299.77,456.50 C300.48,448.71 300.57,448.51 303.00,448.82 C304.38,449.00 306.74,449.17 308.25,449.21 C309.76,449.25 311.00,449.72 311.00,450.26 C311.00,450.80 312.12,451.02 313.50,450.76 C314.88,450.49 316.00,450.68 316.00,451.18 C316.00,451.68 316.56,451.98 317.25,451.84 C319.12,451.47 324.86,454.79 328.13,458.13 C331.88,461.97 336.18,470.61 339.01,480.00 C340.25,484.12 341.62,488.40 342.06,489.50 C342.82,491.42 344.73,497.47 350.40,516.00 C351.84,520.67 353.01,525.26 353.00,526.19 C353.00,527.12 353.42,528.14 353.92,528.45 C354.43,528.77 355.14,530.48 355.50,532.26 C355.86,534.04 356.75,537.30 357.47,539.50 C358.47,542.55 359.92,547.03 361.57,552.24 C360.51,551.20 359.95,552.70 360.70,554.61 C361.41,556.41 361.46,556.41 361.81,554.67 C361.90,554.20 361.93,553.70 361.90,553.28 C366.49,567.74 372.56,587.19 375.50,597.00 C378.12,605.73 386.11,631.59 388.47,639.00 C389.79,643.12 392.95,653.25 395.49,661.50 C403.64,687.90 406.26,696.24 410.23,708.39 C412.36,714.93 413.87,720.89 413.58,721.64 ZM 579.16 719.00 L 579.50 721.50 L 509.75 721.76 C471.39,721.90 439.97,721.90 439.92,721.76 C439.27,719.56 439.38,718.00 440.20,718.00 C440.76,718.00 440.97,717.35 440.66,716.56 C440.36,715.78 440.56,714.98 441.10,714.80 C441.64,714.62 442.16,713.46 442.26,712.24 C442.35,711.01 442.83,710.00 443.32,710.00 C443.81,710.00 443.95,709.33 443.64,708.50 C443.32,707.67 443.55,707.00 444.14,707.00 C444.73,707.00 444.95,706.33 444.64,705.50 C444.32,704.67 444.43,704.00 444.87,704.00 C445.53,704.00 448.14,697.58 448.62,694.75 C448.69,694.34 448.86,693.78 449.00,693.50 C449.14,693.22 449.35,692.66 449.47,692.25 C449.58,691.84 450.44,689.79 451.37,687.71 C452.30,685.62 452.80,683.48 452.47,682.96 C452.15,682.43 452.39,682.00 453.00,682.00 C453.61,682.00 453.84,681.55 453.50,681.00 C453.16,680.45 453.41,680.00 454.05,680.00 C454.69,680.00 454.95,679.33 454.64,678.50 C454.32,677.67 454.55,677.00 455.14,677.00 C455.73,677.00 455.95,676.33 455.64,675.50 C455.32,674.67 455.46,674.00 455.95,674.00 C456.81,674.00 458.58,668.28 458.19,666.75 C458.09,666.34 458.50,666.00 459.11,666.00 C459.72,666.00 459.95,665.33 459.64,664.50 C459.32,663.67 459.46,663.00 459.95,663.00 C460.81,663.00 462.58,657.28 462.19,655.75 C462.09,655.34 462.50,655.00 463.11,655.00 C463.72,655.00 463.95,654.33 463.64,653.50 C463.32,652.67 463.53,652.00 464.09,652.00 C464.66,652.00 464.86,651.58 464.54,651.07 C464.23,650.56 464.43,649.85 465.00,649.50 C465.57,649.15 465.77,648.44 465.46,647.93 C465.14,647.42 465.41,647.00 466.05,647.00 C466.69,647.00 466.95,646.33 466.64,645.50 C466.32,644.67 466.44,644.00 466.90,644.00 C467.76,644.00 470.63,635.12 470.22,633.75 C470.10,633.34 470.41,633.00 470.92,633.00 C471.80,633.00 473.59,627.31 473.19,625.75 C473.09,625.34 473.50,625.00 474.11,625.00 C474.72,625.00 474.95,624.33 474.64,623.50 C474.32,622.67 474.55,622.00 475.14,622.00 C475.73,622.00 475.95,621.33 475.64,620.50 C475.32,619.67 475.53,619.00 476.09,619.00 C476.66,619.00 476.86,618.58 476.54,618.07 C476.23,617.56 476.43,616.85 477.00,616.50 C477.57,616.15 477.77,615.44 477.46,614.93 C477.14,614.42 477.26,614.00 477.72,614.00 C478.82,614.00 481.09,607.96 480.41,606.85 C480.12,606.38 480.41,606.00 481.05,606.00 C481.69,606.00 481.95,605.33 481.64,604.50 C481.32,603.67 481.53,603.00 482.09,603.00 C482.66,603.00 482.86,602.58 482.54,602.07 C482.23,601.56 482.43,600.85 483.00,600.50 C483.57,600.15 483.77,599.44 483.46,598.93 C483.14,598.42 483.41,598.00 484.05,598.00 C484.69,598.00 484.95,597.33 484.64,596.50 C484.32,595.67 484.55,595.00 485.14,595.00 C485.73,595.00 485.95,594.33 485.64,593.50 C485.32,592.67 485.53,592.00 486.09,592.00 C486.66,592.00 486.84,591.55 486.50,591.00 C486.16,590.45 486.41,590.00 487.05,590.00 C487.69,590.00 487.95,589.33 487.64,588.50 C487.32,587.67 487.53,587.00 488.09,587.00 C488.66,587.00 488.86,586.58 488.54,586.07 C488.23,585.56 488.43,584.85 489.00,584.50 C489.57,584.15 489.79,583.47 489.50,583.00 C489.21,582.53 489.43,581.85 490.00,581.50 C490.57,581.15 490.77,580.44 490.46,579.93 C490.14,579.42 490.41,579.00 491.05,579.00 C491.69,579.00 491.97,578.35 491.66,577.56 C491.36,576.78 491.52,575.99 492.03,575.81 C492.53,575.64 493.15,574.38 493.40,573.00 C493.65,571.62 493.94,570.28 494.04,570.00 C494.15,569.72 494.18,569.16 494.12,568.75 C494.05,568.34 494.39,568.00 494.87,568.00 C495.71,568.00 498.69,558.90 498.11,558.11 C497.96,557.90 498.34,557.41 498.96,557.02 C499.59,556.64 500.17,555.35 500.26,554.16 C500.35,552.97 500.83,552.00 501.32,552.00 C501.81,552.00 501.97,551.35 501.66,550.56 C501.36,549.78 501.56,548.98 502.10,548.80 C502.64,548.62 503.16,547.46 503.26,546.24 C503.35,545.01 503.83,544.00 504.32,544.00 C504.81,544.00 504.95,543.33 504.64,542.50 C504.32,541.67 504.45,541.00 504.92,541.00 C505.71,541.00 507.31,536.88 507.44,534.50 C507.47,533.95 507.86,533.23 508.30,532.91 C508.74,532.59 509.17,531.35 509.26,530.16 C509.35,528.97 509.81,528.00 510.27,528.00 C510.74,528.00 510.84,527.55 510.50,527.00 C510.16,526.45 510.49,526.00 511.23,526.00 C512.63,526.00 516.00,530.94 516.00,533.00 C516.00,533.66 516.66,535.62 517.47,537.35 C519.50,541.68 541.14,602.75 543.93,612.00 C545.18,616.12 546.53,619.95 546.94,620.50 C547.35,621.05 548.96,625.55 550.52,630.50 C552.07,635.45 553.68,639.96 554.10,640.51 C554.51,641.07 556.43,646.69 558.36,653.01 C560.28,659.33 564.55,672.60 567.83,682.50 C575.96,707.04 578.76,716.05 579.16,719.00 ZM 544.00 335.74 C544.00,336.89 557.73,337.24 559.50,336.13 C560.42,335.55 563.65,335.18 570.00,334.92 C571.38,334.87 573.04,334.37 573.71,333.83 C574.37,333.28 575.40,333.13 576.00,333.50 C576.60,333.87 577.72,333.64 578.50,333.00 C579.28,332.36 580.40,332.13 581.00,332.50 C581.60,332.87 582.70,332.67 583.44,332.05 C584.18,331.43 585.17,331.00 585.64,331.08 C586.12,331.17 586.72,331.13 587.00,331.01 C587.28,330.88 588.92,330.66 590.65,330.51 C592.39,330.36 595.25,329.52 597.02,328.64 C598.79,327.75 600.64,327.28 601.12,327.58 C601.60,327.87 602.00,327.59 602.00,326.95 C602.00,326.31 602.67,326.05 603.50,326.36 C604.33,326.68 605.00,326.50 605.00,325.97 C605.00,325.44 606.12,325.00 607.50,325.00 C608.88,325.00 610.00,324.58 610.00,324.07 C610.00,323.55 611.01,322.84 612.25,322.48 C616.58,321.21 624.00,317.64 624.00,316.82 C624.00,316.37 624.66,316.00 625.46,316.00 C627.17,316.00 642.62,301.15 642.25,299.87 C642.11,299.39 642.45,299.00 643.00,299.00 C643.55,299.00 644.00,298.36 644.00,297.58 C644.00,296.80 644.47,296.01 645.04,295.82 C645.62,295.63 646.16,294.46 646.26,293.24 C646.35,292.01 646.83,291.00 647.33,291.00 C647.83,291.00 648.00,290.10 647.71,289.00 C647.42,287.90 647.60,286.75 648.09,286.44 C649.30,285.70 649.26,280.28 648.04,279.53 C647.52,279.20 647.34,278.28 647.65,277.47 C647.96,276.66 647.69,276.00 647.05,276.00 C646.41,276.00 646.14,275.59 646.45,275.08 C646.76,274.57 646.36,273.50 645.56,272.70 C644.75,271.90 644.30,271.04 644.54,270.79 C645.61,269.73 639.87,265.80 634.49,263.91 C624.21,260.30 615.66,261.38 601.50,268.09 C595.65,270.86 592.28,273.63 581.00,284.95 C573.58,292.40 566.83,299.57 566.00,300.87 C565.17,302.18 564.04,303.75 563.49,304.37 C559.09,309.27 544.00,333.55 544.00,335.74 ZM 461.25 336.22 C470.73,336.80 479.40,336.29 479.79,335.12 C480.00,334.51 479.68,334.00 479.08,334.00 C478.49,334.00 478.11,333.64 478.25,333.20 C478.61,332.05 474.71,325.00 473.71,325.00 C473.26,325.00 473.16,324.55 473.50,323.99 C473.85,323.44 473.43,322.72 472.57,322.39 C471.71,322.06 471.22,321.46 471.47,321.05 C471.72,320.64 471.05,319.35 469.97,318.19 C468.88,317.03 468.00,315.61 468.00,315.04 C468.00,314.47 467.55,314.00 467.00,314.00 C466.45,314.00 466.00,313.33 466.00,312.50 C466.00,311.67 465.55,311.00 465.00,311.00 C464.45,311.00 464.00,310.35 464.00,309.56 C464.00,308.76 463.10,307.49 462.01,306.72 C460.91,305.95 460.28,305.05 460.60,304.73 C460.93,304.40 460.25,303.55 459.10,302.83 C457.94,302.11 457.00,300.96 457.00,300.27 C457.00,299.58 456.10,298.45 455.00,297.77 C453.90,297.08 453.00,296.05 453.00,295.48 C453.00,294.08 436.62,278.00 435.20,278.00 C434.58,278.00 433.59,277.10 433.00,276.00 C432.41,274.90 431.27,274.00 430.46,274.00 C429.66,274.00 429.00,273.59 429.00,273.10 C429.00,271.71 418.93,266.34 411.83,263.93 C400.14,259.98 386.94,262.52 380.70,269.94 C377.64,273.58 375.47,282.38 376.41,287.36 C377.50,293.20 382.26,301.10 388.37,307.25 C391.51,310.41 394.27,313.00 394.49,313.00 C394.71,313.00 396.10,314.12 397.57,315.48 C399.05,316.85 400.64,317.72 401.13,317.42 C401.61,317.13 402.00,317.35 402.00,317.92 C402.00,318.49 403.23,319.27 404.74,319.65 C406.25,320.03 408.08,320.94 408.82,321.68 C409.56,322.42 410.57,322.76 411.08,322.45 C411.59,322.14 412.00,322.39 412.00,323.00 C412.00,323.61 412.41,323.86 412.91,323.55 C413.42,323.24 413.98,323.43 414.16,323.96 C414.35,324.50 415.62,325.15 417.00,325.40 C418.38,325.65 419.73,325.94 420.00,326.04 C420.27,326.15 420.84,326.18 421.25,326.12 C421.66,326.05 422.00,326.50 422.00,327.11 C422.00,327.73 422.73,327.93 423.67,327.57 C424.59,327.22 425.64,327.42 426.01,328.02 C426.38,328.61 427.77,329.24 429.09,329.42 C430.42,329.59 432.73,330.23 434.24,330.84 C435.75,331.45 437.66,331.68 438.49,331.36 C439.33,331.04 440.00,331.33 440.00,332.00 C440.00,332.80 440.86,333.00 442.50,332.59 C444.06,332.20 445.00,332.39 445.00,333.09 C445.00,333.79 445.94,333.98 447.50,333.59 C449.08,333.19 450.00,333.38 450.00,334.11 C450.00,334.84 451.07,335.04 453.00,334.65 C454.65,334.32 456.00,334.47 456.00,334.97 C456.00,335.48 458.36,336.04 461.25,336.22 Z" fill="rgb(116,51,183)"/>
<path d="M 0.00 512.00 L 0.00 0.00 L 512.00 0.00 L 1024.00 0.00 L 1024.00 512.00 L 1024.00 1024.00 L 512.00 1024.00 L 0.00 1024.00 L 0.00 512.00 ZM 413.58 721.64 C413.87,720.89 412.36,714.93 410.23,708.39 C406.26,696.24 403.64,687.90 395.49,661.50 C392.95,653.25 389.79,643.12 388.47,639.00 C386.11,631.59 378.12,605.73 375.50,597.00 C371.41,583.36 361.28,551.08 357.47,539.50 C356.75,537.30 355.86,534.04 355.50,532.26 C355.14,530.48 354.43,528.77 353.92,528.45 C353.42,528.14 353.00,527.12 353.00,526.19 C353.01,525.26 351.84,520.67 350.40,516.00 C344.73,497.47 342.82,491.42 342.06,489.50 C341.62,488.40 340.25,484.12 339.01,480.00 C336.18,470.61 331.88,461.97 328.13,458.13 C324.86,454.79 319.12,451.47 317.25,451.84 C316.56,451.98 316.00,451.68 316.00,451.18 C316.00,450.68 314.88,450.49 313.50,450.76 C312.12,451.02 311.00,450.80 311.00,450.26 C311.00,449.72 309.76,449.25 308.25,449.21 C306.74,449.17 304.38,449.00 303.00,448.82 C300.57,448.51 300.48,448.71 299.77,456.50 C299.31,461.46 299.43,465.72 300.08,467.72 C300.66,469.50 301.13,474.90 301.12,479.72 C301.09,491.44 301.82,509.41 303.01,526.50 C303.54,534.20 304.27,547.47 304.63,556.00 C305.28,571.42 305.66,579.53 306.72,600.50 C307.03,606.55 307.37,615.10 307.47,619.50 C307.58,623.90 307.95,628.40 308.29,629.50 C308.92,631.49 310.30,659.71 310.47,674.00 C310.52,678.12 310.94,682.31 311.40,683.29 C311.87,684.28 312.00,686.64 311.69,688.54 C311.34,690.65 311.54,692.00 312.18,692.00 C312.76,692.00 313.00,692.90 312.71,694.00 C312.42,695.10 312.64,696.00 313.20,696.00 C313.76,696.00 313.97,696.65 313.66,697.44 C313.36,698.22 313.56,699.02 314.10,699.20 C314.64,699.38 315.16,700.54 315.26,701.76 C315.35,702.99 315.78,704.00 316.21,704.00 C316.65,704.00 317.00,704.67 317.00,705.50 C317.00,706.33 317.45,707.00 318.00,707.00 C318.55,707.00 319.00,707.41 319.00,707.90 C319.00,708.88 325.84,716.00 326.77,716.00 C327.09,716.00 328.16,716.74 329.17,717.65 C330.17,718.56 333.36,720.12 336.25,721.12 C340.93,722.74 345.37,722.94 377.28,722.97 C406.54,722.99 413.16,722.75 413.58,721.64 ZM 690.00 720.02 C699.57,714.75 703.63,710.40 708.34,700.34 C711.64,693.29 712.65,682.94 716.96,612.00 C718.08,593.58 719.44,571.53 719.98,563.00 C720.52,554.47 721.44,538.05 722.01,526.50 C722.58,514.95 723.47,499.42 724.00,492.00 C724.53,484.58 725.27,471.56 725.64,463.08 C726.30,448.16 726.26,447.69 724.41,448.45 C723.36,448.88 721.83,449.25 721.00,449.26 C720.17,449.26 718.99,449.67 718.38,450.15 C717.76,450.64 716.52,450.75 715.63,450.41 C714.73,450.07 714.00,450.19 714.00,450.67 C714.00,451.16 712.01,452.15 709.58,452.87 C705.40,454.10 695.56,462.23 696.78,463.44 C697.06,463.72 696.55,464.24 695.64,464.58 C694.74,464.93 694.00,465.84 694.00,466.61 C694.00,467.37 693.52,468.00 692.94,468.00 C692.36,468.00 692.16,468.45 692.50,469.00 C692.84,469.55 692.61,470.00 692.00,470.00 C691.39,470.00 691.16,470.45 691.50,471.00 C691.84,471.55 691.74,472.00 691.27,472.00 C690.81,472.00 690.35,473.01 690.26,474.24 C690.16,475.46 689.64,476.62 689.10,476.80 C688.56,476.98 688.34,477.72 688.61,478.44 C688.89,479.15 688.49,480.37 687.73,481.13 C686.96,481.89 686.53,483.08 686.75,483.76 C686.98,484.44 686.69,485.00 686.11,485.00 C685.54,485.00 685.32,485.67 685.64,486.50 C685.95,487.33 685.72,488.00 685.11,488.00 C684.50,488.00 684.05,488.34 684.12,488.75 C684.18,489.16 684.13,489.84 683.99,490.25 C683.86,490.66 683.68,491.34 683.60,491.75 C682.79,495.85 680.57,502.00 679.90,502.00 C679.44,502.00 679.32,502.67 679.64,503.50 C679.95,504.33 679.73,505.00 679.14,505.00 C678.55,505.00 678.32,505.67 678.64,506.50 C678.95,507.33 678.72,508.00 678.11,508.00 C677.50,508.00 677.10,508.34 677.22,508.75 C677.57,509.91 674.82,519.00 674.12,519.00 C673.78,519.00 673.43,520.22 673.34,521.72 C673.26,523.22 672.72,524.59 672.15,524.78 C671.58,524.97 671.36,525.78 671.66,526.56 C671.97,527.35 671.73,528.00 671.14,528.00 C670.55,528.00 670.32,528.67 670.64,529.50 C670.95,530.33 670.73,531.00 670.14,531.00 C669.55,531.00 669.32,531.67 669.64,532.50 C669.95,533.33 669.73,534.00 669.14,534.00 C668.55,534.00 668.32,534.67 668.64,535.50 C668.95,536.33 668.77,537.00 668.22,537.00 C667.67,537.00 667.28,537.56 667.36,538.25 C667.57,540.26 660.81,559.43 659.60,560.23 C659.00,560.64 658.89,560.98 659.37,560.98 C659.85,560.99 659.68,561.67 659.00,562.50 C658.32,563.33 658.13,564.00 658.58,564.00 C659.03,564.00 658.90,564.50 658.28,565.12 C657.66,565.74 657.39,566.86 657.69,567.62 C657.98,568.38 657.72,569.00 657.11,569.00 C656.50,569.00 656.10,569.34 656.22,569.75 C656.63,571.12 653.76,580.00 652.90,580.00 C652.44,580.00 652.32,580.67 652.64,581.50 C652.95,582.33 652.73,583.00 652.14,583.00 C651.55,583.00 651.32,583.67 651.64,584.50 C651.95,585.33 651.73,586.00 651.14,586.00 C650.55,586.00 650.32,586.67 650.64,587.50 C650.95,588.33 650.73,589.00 650.14,589.00 C649.55,589.00 649.32,589.67 649.64,590.50 C649.95,591.33 649.69,592.00 649.05,592.00 C648.41,592.00 648.08,592.34 648.32,592.75 C648.57,593.16 648.30,594.62 647.73,596.00 C647.17,597.38 646.60,598.96 646.47,599.53 C645.50,603.87 642.49,612.00 641.85,612.00 C641.42,612.00 641.32,612.67 641.64,613.50 C641.95,614.33 641.73,615.00 641.14,615.00 C640.55,615.00 640.32,615.67 640.64,616.50 C640.95,617.33 640.69,618.00 640.05,618.00 C639.41,618.00 639.12,618.38 639.40,618.84 C639.84,619.55 637.93,625.67 635.30,632.00 C634.95,632.83 634.62,633.72 634.56,634.00 C633.58,638.46 631.55,644.00 630.90,644.00 C630.44,644.00 630.32,644.67 630.64,645.50 C630.95,646.33 630.73,647.00 630.14,647.00 C629.55,647.00 629.32,647.67 629.64,648.50 C629.95,649.33 629.73,650.00 629.14,650.00 C628.55,650.00 628.32,650.67 628.64,651.50 C628.95,652.33 628.73,653.00 628.14,653.00 C627.55,653.00 627.32,653.67 627.64,654.50 C627.95,655.33 627.73,656.00 627.14,656.00 C626.55,656.00 626.32,656.67 626.64,657.50 C626.95,658.33 626.73,659.00 626.14,659.00 C625.55,659.00 625.32,659.67 625.64,660.50 C625.95,661.33 625.73,662.00 625.14,662.00 C624.55,662.00 624.32,662.67 624.64,663.50 C624.95,664.33 624.72,665.00 624.11,665.00 C623.50,665.00 623.11,665.34 623.25,665.76 C623.67,667.03 618.70,682.00 617.86,682.00 C617.42,682.00 617.32,682.67 617.64,683.50 C617.95,684.33 617.73,685.00 617.14,685.00 C616.55,685.00 616.32,685.67 616.64,686.50 C616.95,687.33 616.73,688.00 616.14,688.00 C615.55,688.00 615.32,688.67 615.64,689.50 C615.95,690.33 615.73,691.00 615.14,691.00 C614.55,691.00 614.32,691.67 614.64,692.50 C614.95,693.33 614.72,694.00 614.11,694.00 C613.50,694.00 613.10,694.34 613.22,694.75 C613.63,696.12 610.76,705.00 609.90,705.00 C609.44,705.00 609.32,705.67 609.64,706.50 C609.95,707.33 609.73,708.00 609.14,708.00 C608.55,708.00 608.32,708.67 608.64,709.50 C608.95,710.33 608.69,711.00 608.05,711.00 C607.41,711.00 607.14,711.42 607.46,711.93 C607.77,712.44 607.59,713.13 607.06,713.46 C606.53,713.79 606.34,714.72 606.65,715.53 C606.96,716.34 606.83,717.00 606.36,717.00 C604.72,717.00 605.17,721.88 606.86,722.36 C607.76,722.61 625.83,722.75 647.00,722.66 L 685.50 722.50 L 690.00 720.02 ZM 579.16 719.00 C578.76,716.05 575.96,707.04 567.83,682.50 C564.55,672.60 560.28,659.33 558.36,653.01 C556.43,646.69 554.51,641.07 554.10,640.51 C553.68,639.96 552.07,635.45 550.52,630.50 C548.96,625.55 547.35,621.05 546.94,620.50 C546.53,619.95 545.18,616.12 543.93,612.00 C541.14,602.75 519.50,541.68 517.47,537.35 C516.66,535.62 516.00,533.66 516.00,533.00 C516.00,530.94 512.63,526.00 511.23,526.00 C510.49,526.00 510.16,526.45 510.50,527.00 C510.84,527.55 510.74,528.00 510.27,528.00 C509.81,528.00 509.35,528.97 509.26,530.16 C509.17,531.35 508.74,532.59 508.30,532.91 C507.86,533.23 507.47,533.95 507.44,534.50 C507.31,536.88 505.71,541.00 504.92,541.00 C504.45,541.00 504.32,541.67 504.64,542.50 C504.95,543.33 504.81,544.00 504.32,544.00 C503.83,544.00 503.35,545.01 503.26,546.24 C503.16,547.46 502.64,548.62 502.10,548.80 C501.56,548.98 501.36,549.78 501.66,550.56 C501.97,551.35 501.81,552.00 501.32,552.00 C500.83,552.00 500.35,552.97 500.26,554.16 C500.17,555.35 499.59,556.64 498.96,557.02 C498.34,557.41 497.96,557.90 498.11,558.11 C498.69,558.90 495.71,568.00 494.87,568.00 C494.39,568.00 494.05,568.34 494.12,568.75 C494.18,569.16 494.15,569.72 494.04,570.00 C493.94,570.28 493.65,571.62 493.40,573.00 C493.15,574.38 492.53,575.64 492.03,575.81 C491.52,575.99 491.36,576.78 491.66,577.56 C491.97,578.35 491.69,579.00 491.05,579.00 C490.41,579.00 490.14,579.42 490.46,579.93 C490.77,580.44 490.57,581.15 490.00,581.50 C489.43,581.85 489.21,582.53 489.50,583.00 C489.79,583.47 489.57,584.15 489.00,584.50 C488.43,584.85 488.23,585.56 488.54,586.07 C488.86,586.58 488.66,587.00 488.09,587.00 C487.53,587.00 487.32,587.67 487.64,588.50 C487.95,589.33 487.69,590.00 487.05,590.00 C486.41,590.00 486.16,590.45 486.50,591.00 C486.84,591.55 486.66,592.00 486.09,592.00 C485.53,592.00 485.32,592.67 485.64,593.50 C485.95,594.33 485.73,595.00 485.14,595.00 C484.55,595.00 484.32,595.67 484.64,596.50 C484.95,597.33 484.69,598.00 484.05,598.00 C483.41,598.00 483.14,598.42 483.46,598.93 C483.77,599.44 483.57,600.15 483.00,600.50 C482.43,600.85 482.23,601.56 482.54,602.07 C482.86,602.58 482.66,603.00 482.09,603.00 C481.53,603.00 481.32,603.67 481.64,604.50 C481.95,605.33 481.69,606.00 481.05,606.00 C480.41,606.00 480.12,606.38 480.41,606.85 C481.09,607.96 478.82,614.00 477.72,614.00 C477.26,614.00 477.14,614.42 477.46,614.93 C477.77,615.44 477.57,616.15 477.00,616.50 C476.43,616.85 476.23,617.56 476.54,618.07 C476.86,618.58 476.66,619.00 476.09,619.00 C475.53,619.00 475.32,619.67 475.64,620.50 C475.95,621.33 475.73,622.00 475.14,622.00 C474.55,622.00 474.32,622.67 474.64,623.50 C474.95,624.33 474.72,625.00 474.11,625.00 C473.50,625.00 473.09,625.34 473.19,625.75 C473.59,627.31 471.80,633.00 470.92,633.00 C470.41,633.00 470.10,633.34 470.22,633.75 C470.63,635.12 467.76,644.00 466.90,644.00 C466.44,644.00 466.32,644.67 466.64,645.50 C466.95,646.33 466.69,647.00 466.05,647.00 C465.41,647.00 465.14,647.42 465.46,647.93 C465.77,648.44 465.57,649.15 465.00,649.50 C464.43,649.85 464.23,650.56 464.54,651.07 C464.86,651.58 464.66,652.00 464.09,652.00 C463.53,652.00 463.32,652.67 463.64,653.50 C463.95,654.33 463.72,655.00 463.11,655.00 C462.50,655.00 462.09,655.34 462.19,655.75 C462.58,657.28 460.81,663.00 459.95,663.00 C459.46,663.00 459.32,663.67 459.64,664.50 C459.95,665.33 459.72,666.00 459.11,666.00 C458.50,666.00 458.09,666.34 458.19,666.75 C458.58,668.28 456.81,674.00 455.95,674.00 C455.46,674.00 455.32,674.67 455.64,675.50 C455.95,676.33 455.73,677.00 455.14,677.00 C454.55,677.00 454.32,677.67 454.64,678.50 C454.95,679.33 454.69,680.00 454.05,680.00 C453.41,680.00 453.16,680.45 453.50,681.00 C453.84,681.55 453.61,682.00 453.00,682.00 C452.39,682.00 452.15,682.43 452.47,682.96 C452.80,683.48 452.30,685.62 451.37,687.71 C450.44,689.79 449.58,691.84 449.47,692.25 C449.35,692.66 449.14,693.22 449.00,693.50 C448.86,693.78 448.69,694.34 448.62,694.75 C448.14,697.58 445.53,704.00 444.87,704.00 C444.43,704.00 444.32,704.67 444.64,705.50 C444.95,706.33 444.73,707.00 444.14,707.00 C443.55,707.00 443.32,707.67 443.64,708.50 C443.95,709.33 443.81,710.00 443.32,710.00 C442.83,710.00 442.35,711.01 442.26,712.24 C442.16,713.46 441.64,714.62 441.10,714.80 C440.56,714.98 440.36,715.78 440.66,716.56 C440.97,717.35 440.76,718.00 440.20,718.00 C439.38,718.00 439.27,719.56 439.92,721.76 C439.97,721.90 471.39,721.90 509.75,721.76 L 579.50 721.50 L 579.16 719.00 ZM 610.67 631.16 C611.30,630.15 613.47,624.63 615.49,618.91 C623.74,595.49 633.40,567.54 638.61,552.00 C641.66,542.92 644.41,534.83 644.74,534.00 C645.06,533.17 645.40,532.28 645.50,532.00 C645.60,531.72 645.91,530.83 646.19,530.00 C646.48,529.17 647.89,524.90 649.33,520.50 C652.48,510.88 662.06,483.29 664.43,477.00 C667.96,467.64 669.31,459.97 668.12,455.99 C666.80,451.61 663.23,446.74 661.92,447.55 C661.41,447.86 661.00,447.61 661.00,447.00 C661.00,446.39 660.55,446.16 660.00,446.50 C659.45,446.84 659.00,446.61 659.00,446.00 C659.00,445.39 658.58,445.14 658.07,445.46 C657.56,445.77 656.84,445.54 656.47,444.95 C656.10,444.35 655.21,444.09 654.48,444.37 C651.79,445.40 646.00,438.37 646.00,434.07 C646.00,432.01 646.24,432.00 685.95,432.00 C727.79,432.00 728.85,431.90 733.57,427.50 C738.51,422.89 739.00,420.39 738.99,399.80 C738.99,389.18 738.54,378.87 737.98,376.88 C736.85,372.81 730.96,366.00 728.57,366.00 C727.71,366.00 727.00,365.56 727.00,365.03 C727.00,364.50 726.33,364.32 725.50,364.64 C724.67,364.95 724.00,364.83 724.00,364.36 C724.00,363.89 701.84,363.64 674.75,363.80 C647.66,363.97 623.04,363.81 620.04,363.45 L 614.59 362.80 L 626.04 357.14 C638.20,351.12 650.28,344.14 650.83,342.80 C651.02,342.36 651.58,342.00 652.08,342.00 C653.55,342.00 665.63,330.46 672.51,322.50 C680.50,313.25 685.84,298.92 686.68,284.50 C687.50,270.34 684.21,258.95 676.14,248.00 C673.39,244.28 666.07,237.00 665.07,237.00 C664.75,237.00 663.36,235.98 661.99,234.73 C659.52,232.47 648.29,227.00 646.12,227.00 C645.51,227.00 645.00,226.56 645.00,226.03 C645.00,225.50 644.33,225.32 643.50,225.64 C642.67,225.95 642.00,225.69 642.00,225.04 C642.00,224.32 641.22,224.11 640.00,224.50 C638.90,224.85 638.00,224.75 638.00,224.27 C638.00,223.07 614.25,223.57 610.19,224.85 C608.37,225.42 606.24,225.64 605.44,225.34 C604.65,225.04 604.00,225.27 604.00,225.86 C604.00,226.45 603.33,226.68 602.50,226.36 C601.67,226.05 601.00,226.28 601.00,226.89 C601.00,227.50 600.11,228.00 599.03,228.00 C596.90,228.00 589.34,231.64 588.44,233.10 C588.13,233.60 587.23,234.00 586.44,234.00 C585.65,234.00 584.10,234.90 583.00,236.00 C581.90,237.10 580.33,238.00 579.50,238.00 C578.67,238.00 578.00,238.45 578.00,239.00 C578.00,239.55 577.37,240.00 576.61,240.00 C575.84,240.00 574.95,240.68 574.64,241.50 C574.32,242.32 573.42,243.00 572.64,243.00 C571.85,243.00 570.95,243.68 570.64,244.50 C570.32,245.32 569.68,246.00 569.21,246.00 C566.93,246.00 544.00,268.81 544.00,271.08 C544.00,271.57 543.10,272.55 542.00,273.23 C540.90,273.92 540.00,275.02 540.00,275.68 C540.00,276.35 539.10,277.51 538.01,278.28 C536.91,279.05 536.30,279.97 536.65,280.32 C537.00,280.67 536.55,281.24 535.64,281.58 C534.74,281.93 534.00,282.85 534.00,283.64 C534.00,284.42 533.33,285.32 532.51,285.64 C531.68,285.95 531.24,286.58 531.53,287.04 C531.81,287.50 531.47,288.24 530.77,288.69 C530.07,289.13 528.86,290.73 528.09,292.23 C527.31,293.74 525.85,295.86 524.84,296.94 C523.83,298.03 523.00,299.39 523.00,299.96 C523.00,300.53 522.52,301.00 521.94,301.00 C521.36,301.00 521.16,301.45 521.50,302.01 C521.85,302.56 521.43,303.28 520.57,303.61 C519.71,303.94 519.26,304.61 519.56,305.10 C519.87,305.60 519.61,306.00 519.00,306.00 C518.39,306.00 518.12,306.38 518.41,306.85 C518.69,307.32 518.05,308.65 516.97,309.81 C515.88,310.97 515.00,312.46 515.00,313.13 C515.00,313.80 514.25,315.17 513.33,316.19 C511.73,317.95 511.44,317.65 506.98,309.67 C502.31,301.30 491.04,284.01 486.77,278.66 C478.14,267.85 474.63,263.79 469.33,258.50 C461.22,250.40 455.86,245.68 453.75,244.80 C452.79,244.39 452.00,243.57 452.00,242.97 C452.00,242.37 451.55,242.16 450.99,242.50 C450.44,242.85 449.72,242.42 449.39,241.56 C449.06,240.70 448.24,240.00 447.58,240.00 C446.92,240.00 445.41,239.10 444.23,238.00 C443.05,236.90 441.61,236.00 441.04,236.00 C440.47,236.00 440.00,235.60 440.00,235.11 C440.00,234.62 438.88,233.93 437.50,233.59 C436.12,233.24 435.00,232.54 435.00,232.03 C435.00,231.51 433.42,230.80 431.50,230.43 C429.58,230.07 428.00,229.47 428.00,229.10 C428.00,228.73 426.99,228.35 425.76,228.26 C424.54,228.16 423.38,227.64 423.20,227.10 C423.02,226.56 422.22,226.36 421.44,226.66 C420.65,226.97 420.00,226.73 420.00,226.14 C420.00,225.55 419.33,225.32 418.50,225.64 C417.67,225.95 417.00,225.71 417.00,225.09 C417.00,224.39 416.06,224.20 414.50,224.59 C412.99,224.97 412.00,224.79 412.00,224.13 C412.00,223.46 410.86,223.28 409.00,223.65 C407.21,224.01 405.39,223.74 404.48,222.99 C403.41,222.09 401.44,221.95 397.73,222.48 C394.85,222.89 391.38,223.30 390.00,223.38 C388.62,223.46 386.93,223.89 386.24,224.33 C385.54,224.77 383.63,225.17 381.99,225.22 C380.34,225.27 379.00,225.71 379.00,226.21 C379.00,226.71 378.58,226.86 378.06,226.54 C377.09,225.94 364.77,231.90 364.17,233.25 C363.98,233.66 363.44,234.00 362.96,234.00 C362.48,234.00 360.99,235.01 359.63,236.25 C358.28,237.49 356.02,239.40 354.60,240.50 C353.18,241.60 352.02,243.03 352.01,243.68 C352.00,244.32 350.81,245.79 349.37,246.93 C347.92,248.07 347.13,249.01 347.62,249.03 C348.10,249.05 347.68,249.68 346.68,250.44 C345.68,251.20 344.83,252.20 344.79,252.66 C344.60,254.91 342.70,259.00 341.84,259.00 C341.31,259.00 341.16,259.45 341.50,260.00 C341.84,260.55 341.66,261.00 341.09,261.00 C340.53,261.00 340.32,261.67 340.64,262.50 C340.95,263.33 340.73,264.00 340.14,264.00 C339.55,264.00 339.30,264.63 339.60,265.40 C339.89,266.17 339.68,267.08 339.11,267.43 C338.55,267.78 338.33,268.70 338.63,269.48 C338.93,270.27 338.85,271.44 338.44,272.09 C337.54,273.55 337.60,290.55 338.52,292.03 C338.88,292.62 338.93,293.73 338.63,294.52 C338.33,295.30 338.55,296.22 339.11,296.57 C339.68,296.92 339.89,297.83 339.60,298.60 C339.30,299.37 339.55,300.00 340.14,300.00 C340.73,300.00 340.97,300.65 340.66,301.44 C340.36,302.22 340.56,303.02 341.10,303.20 C341.64,303.38 342.16,304.54 342.26,305.76 C342.35,306.99 342.81,308.00 343.27,308.00 C343.74,308.00 343.84,308.45 343.50,309.00 C343.16,309.55 343.39,310.00 344.00,310.00 C344.61,310.00 344.84,310.45 344.50,311.00 C344.16,311.55 344.39,312.00 345.00,312.00 C345.61,312.00 345.84,312.45 345.50,313.00 C345.16,313.55 345.36,314.00 345.94,314.00 C346.52,314.00 347.00,314.67 347.00,315.50 C347.00,316.33 347.48,317.00 348.06,317.00 C348.64,317.00 348.87,317.40 348.56,317.90 C348.26,318.39 348.68,319.05 349.51,319.36 C350.33,319.68 351.00,320.63 351.00,321.47 C351.00,322.31 351.46,323.00 352.03,323.00 C352.60,323.00 353.31,323.65 353.62,324.45 C353.93,325.25 357.11,328.74 360.69,332.20 C364.27,335.67 367.93,339.29 368.82,340.25 C369.72,341.21 371.02,342.00 371.72,342.00 C372.43,342.00 373.00,342.37 373.00,342.83 C373.00,343.29 374.24,344.30 375.75,345.08 C377.26,345.86 378.73,346.72 379.00,347.00 C380.53,348.53 386.02,351.38 398.00,356.84 C403.43,359.32 405.61,360.20 409.47,361.46 C415.72,363.51 404.66,364.00 354.15,363.94 C324.26,363.90 299.54,364.12 299.23,364.43 C298.92,364.75 297.91,365.00 296.99,365.00 C294.86,365.00 288.08,370.10 288.04,371.75 C288.02,372.44 287.52,373.00 286.94,373.00 C286.36,373.00 286.16,373.45 286.50,374.00 C286.84,374.55 286.61,375.00 286.00,375.00 C285.39,375.00 285.16,375.45 285.50,376.00 C285.84,376.55 285.87,377.40 285.56,377.90 C284.97,378.86 284.72,416.06 285.28,419.67 C285.46,420.86 286.08,422.43 286.65,423.17 C287.22,423.90 287.96,425.27 288.30,426.22 C288.64,427.16 290.62,428.72 292.71,429.69 C296.07,431.24 301.41,431.50 340.00,431.99 C363.92,432.29 384.39,432.96 385.48,433.47 C388.12,434.70 392.09,439.05 391.48,440.04 C391.21,440.47 391.48,440.99 392.09,441.20 C392.69,441.40 393.26,442.78 393.34,444.28 C393.43,445.78 393.89,447.00 394.36,447.00 C394.83,447.00 394.98,447.62 394.69,448.38 C394.39,449.14 394.53,450.15 394.99,450.63 C396.24,451.95 399.04,462.12 398.42,463.12 C398.13,463.61 398.41,464.00 399.05,464.00 C399.69,464.00 399.96,464.66 399.65,465.47 C399.34,466.28 399.53,467.21 400.06,467.54 C400.59,467.87 400.79,468.53 400.50,469.00 C400.21,469.47 400.46,470.16 401.05,470.53 C401.65,470.90 401.89,471.83 401.60,472.60 C401.30,473.37 401.55,474.00 402.14,474.00 C402.73,474.00 402.95,474.67 402.64,475.50 C402.32,476.33 402.52,477.00 403.08,477.00 C403.63,477.00 404.00,477.56 403.88,478.25 C403.77,478.94 404.20,480.78 404.85,482.33 C405.49,483.89 405.76,485.58 405.45,486.08 C405.14,486.59 405.38,487.00 405.98,487.00 C406.59,487.00 407.00,487.56 406.89,488.25 C406.78,488.94 406.98,490.17 407.33,491.00 C408.90,494.63 410.86,502.41 410.39,503.17 C410.11,503.63 410.38,504.00 410.98,504.00 C411.59,504.00 412.00,504.56 411.88,505.25 C411.77,505.94 412.20,507.78 412.85,509.33 C413.49,510.89 413.78,512.54 413.50,513.00 C413.22,513.46 413.45,513.98 414.01,514.17 C414.58,514.36 415.15,515.97 415.27,517.76 C415.40,519.54 415.86,521.00 416.29,521.00 C416.73,521.00 417.00,521.56 416.88,522.25 C416.77,522.94 417.21,524.80 417.87,526.39 C418.52,527.98 418.82,529.51 418.54,529.80 C418.25,530.08 418.52,530.92 419.13,531.66 C419.74,532.40 419.91,533.00 419.50,533.00 C419.09,533.00 419.30,533.66 419.96,534.46 C420.63,535.26 420.91,536.34 420.58,536.87 C420.25,537.40 420.43,537.98 420.98,538.16 C421.52,538.35 422.17,540.08 422.42,542.00 C422.66,543.92 422.95,545.61 423.06,545.75 C423.16,545.89 423.31,546.41 423.38,546.92 C423.44,547.42 423.81,548.14 424.18,548.51 C424.56,548.89 424.62,549.83 424.32,550.60 C424.03,551.37 424.33,552.00 425.00,552.00 C425.67,552.00 425.96,552.67 425.64,553.50 C425.32,554.33 425.45,555.00 425.92,555.00 C426.77,555.00 428.50,561.33 428.32,563.75 C428.27,564.44 428.57,565.00 429.00,565.00 C429.79,565.00 431.49,571.44 431.32,573.75 C431.27,574.44 431.67,575.00 432.22,575.00 C432.77,575.00 432.95,575.67 432.64,576.50 C432.32,577.33 432.55,578.00 433.14,578.00 C433.73,578.00 433.96,578.66 433.65,579.47 C433.34,580.28 433.55,581.22 434.11,581.57 C434.68,581.92 434.91,582.80 434.62,583.54 C434.34,584.27 434.51,585.01 434.99,585.19 C435.48,585.36 436.03,586.62 436.21,588.00 C436.40,589.38 436.90,591.06 437.33,591.75 C437.77,592.44 437.84,593.45 437.50,594.00 C437.16,594.55 437.38,595.00 437.98,595.00 C438.59,595.00 439.00,595.56 438.88,596.25 C438.77,596.94 439.25,598.85 439.94,600.50 C440.63,602.15 441.26,604.51 441.35,605.75 C441.43,606.99 441.89,608.00 442.36,608.00 C442.83,608.00 442.95,608.67 442.64,609.50 C442.32,610.33 442.52,611.00 443.08,611.00 C443.63,611.00 444.00,611.56 443.88,612.25 C443.77,612.94 444.24,614.85 444.92,616.50 C445.60,618.15 446.21,620.29 446.29,621.25 C446.36,622.21 446.83,623.00 447.32,623.00 C447.81,623.00 448.00,623.56 447.74,624.25 C447.48,624.94 447.69,626.62 448.21,628.00 C449.13,630.43 449.21,630.37 450.89,626.00 C451.83,623.53 454.11,617.00 455.94,611.50 C457.77,606.00 459.83,600.15 460.52,598.50 C461.21,596.85 462.08,594.38 462.45,593.00 C462.82,591.62 463.54,589.60 464.05,588.50 C465.22,585.98 477.72,550.64 481.92,538.00 C483.65,532.78 485.50,527.72 486.03,526.76 C486.57,525.81 487.00,524.15 487.00,523.07 C487.00,522.00 487.42,520.86 487.92,520.55 C488.43,520.23 489.14,518.65 489.49,517.03 C489.85,515.41 491.01,512.29 492.07,510.09 C493.13,507.89 494.00,505.44 494.00,504.63 C494.00,503.82 494.63,501.89 495.39,500.33 C496.15,498.77 497.24,496.15 497.80,494.50 C498.36,492.85 500.30,487.74 502.10,483.13 C505.23,475.12 505.32,474.52 504.23,468.63 C502.78,460.84 500.92,452.94 497.74,441.17 L 495.23 431.84 L 513.04 432.17 C529.49,432.47 531.08,432.67 533.68,434.66 C535.23,435.85 536.39,437.31 536.25,437.91 C536.11,438.51 536.50,439.00 537.11,439.00 C537.72,439.00 537.95,439.67 537.64,440.50 C537.32,441.33 537.55,442.00 538.14,442.00 C538.73,442.00 538.95,442.67 538.64,443.50 C538.32,444.33 538.42,445.00 538.86,445.00 C539.70,445.00 544.67,459.97 544.25,461.24 C544.11,461.66 544.50,462.00 545.11,462.00 C545.72,462.00 545.96,462.66 545.65,463.47 C545.34,464.28 545.53,465.21 546.06,465.54 C546.59,465.87 546.77,466.56 546.46,467.07 C546.14,467.58 546.41,468.00 547.05,468.00 C547.69,468.00 547.95,468.67 547.64,469.50 C547.32,470.33 547.46,471.00 547.95,471.00 C548.44,471.00 549.19,472.46 549.61,474.25 C550.04,476.04 550.47,477.84 550.57,478.25 C550.67,478.66 550.86,479.23 551.00,479.50 C551.14,479.77 551.36,480.45 551.50,481.00 C551.64,481.55 551.86,482.34 551.99,482.75 C552.13,483.16 552.18,483.84 552.12,484.25 C552.05,484.66 552.41,485.00 552.92,485.00 C553.43,485.00 554.19,486.46 554.61,488.25 C555.73,492.93 555.73,492.93 555.99,493.75 C556.13,494.16 556.18,494.84 556.12,495.25 C556.05,495.66 556.50,496.00 557.11,496.00 C557.72,496.00 557.95,496.67 557.64,497.50 C557.32,498.33 557.55,499.00 558.14,499.00 C558.73,499.00 558.95,499.67 558.64,500.50 C558.32,501.33 558.46,502.00 558.95,502.00 C559.44,502.00 560.19,503.46 560.61,505.25 C561.73,509.93 561.73,509.93 561.99,510.75 C562.13,511.16 562.18,511.84 562.12,512.25 C562.05,512.66 562.50,513.00 563.11,513.00 C563.72,513.00 563.95,513.67 563.64,514.50 C563.32,515.33 563.44,516.00 563.90,516.00 C564.76,516.00 567.63,524.88 567.22,526.25 C567.10,526.66 567.50,527.00 568.11,527.00 C568.72,527.00 568.97,527.65 568.66,528.44 C568.36,529.22 568.52,530.01 569.03,530.19 C569.53,530.36 570.15,531.62 570.40,533.00 C570.65,534.38 570.94,535.61 571.05,535.75 C571.16,535.89 571.36,536.45 571.50,537.00 C571.64,537.55 571.86,538.22 572.00,538.50 C572.14,538.78 572.35,539.34 572.47,539.75 C572.58,540.16 573.46,542.25 574.41,544.39 C575.37,546.53 576.21,549.12 576.29,550.14 C576.36,551.16 576.83,552.00 577.32,552.00 C577.81,552.00 577.95,552.67 577.64,553.50 C577.32,554.33 577.55,555.00 578.14,555.00 C578.73,555.00 578.97,555.65 578.66,556.44 C578.36,557.22 578.52,558.01 579.03,558.19 C579.53,558.36 580.15,559.62 580.40,561.00 C580.65,562.38 580.94,563.72 581.04,564.00 C581.15,564.28 581.18,564.84 581.12,565.25 C581.05,565.66 581.50,566.00 582.11,566.00 C582.72,566.00 582.97,566.65 582.66,567.44 C582.36,568.22 582.52,569.01 583.03,569.19 C583.53,569.36 584.15,570.62 584.40,572.00 C584.65,573.38 584.88,574.61 584.93,574.75 C584.97,574.89 584.96,575.29 584.91,575.64 C584.87,575.99 585.31,576.57 585.89,576.93 C586.47,577.29 587.15,578.69 587.40,580.04 C587.65,581.39 587.94,582.72 588.04,583.00 C588.15,583.28 588.18,583.84 588.12,584.25 C588.05,584.66 588.50,585.00 589.11,585.00 C589.72,585.00 589.97,585.65 589.66,586.44 C589.36,587.22 589.56,588.02 590.10,588.20 C590.64,588.38 591.16,589.54 591.26,590.76 C591.35,591.99 591.83,593.00 592.32,593.00 C592.81,593.00 592.95,593.67 592.64,594.50 C592.32,595.33 592.53,596.00 593.09,596.00 C593.66,596.00 593.84,596.45 593.50,597.00 C593.16,597.55 593.41,598.00 594.05,598.00 C594.69,598.00 594.97,598.65 594.66,599.44 C594.36,600.22 594.56,601.02 595.10,601.20 C595.64,601.38 596.16,602.54 596.26,603.76 C596.35,604.99 596.73,606.00 597.10,606.00 C597.75,606.00 599.33,610.38 599.44,612.50 C599.47,613.05 600.09,614.12 600.81,614.88 C601.53,615.64 601.89,616.85 601.61,617.56 C601.34,618.28 601.50,619.01 601.96,619.19 C602.43,619.36 602.97,620.40 603.16,621.50 C603.35,622.60 603.86,623.77 604.30,624.09 C604.74,624.41 605.17,625.65 605.26,626.84 C605.35,628.03 605.73,629.00 606.10,629.00 C606.46,629.00 607.00,629.90 607.29,631.00 C607.94,633.50 609.17,633.55 610.67,631.16 ZM 461.25 336.22 C458.36,336.04 456.00,335.48 456.00,334.97 C456.00,334.47 454.65,334.32 453.00,334.65 C451.07,335.04 450.00,334.84 450.00,334.11 C450.00,333.38 449.08,333.19 447.50,333.59 C445.94,333.98 445.00,333.79 445.00,333.09 C445.00,332.39 444.06,332.20 442.50,332.59 C440.86,333.00 440.00,332.80 440.00,332.00 C440.00,331.33 439.33,331.04 438.49,331.36 C437.66,331.68 435.75,331.45 434.24,330.84 C432.73,330.23 430.42,329.59 429.09,329.42 C427.77,329.24 426.38,328.61 426.01,328.02 C425.64,327.42 424.59,327.22 423.67,327.57 C422.73,327.93 422.00,327.73 422.00,327.11 C422.00,326.50 421.66,326.05 421.25,326.12 C420.84,326.18 420.27,326.15 420.00,326.04 C419.73,325.94 418.38,325.65 417.00,325.40 C415.62,325.15 414.35,324.50 414.16,323.96 C413.98,323.43 413.42,323.24 412.91,323.55 C412.41,323.86 412.00,323.61 412.00,323.00 C412.00,322.39 411.59,322.14 411.08,322.45 C410.57,322.76 409.56,322.42 408.82,321.68 C408.08,320.94 406.25,320.03 404.74,319.65 C403.23,319.27 402.00,318.49 402.00,317.92 C402.00,317.35 401.61,317.13 401.13,317.42 C400.64,317.72 399.05,316.85 397.57,315.48 C396.10,314.12 394.71,313.00 394.49,313.00 C394.27,313.00 391.51,310.41 388.37,307.25 C382.26,301.10 377.50,293.20 376.41,287.36 C375.47,282.38 377.64,273.58 380.70,269.94 C386.94,262.52 400.14,259.98 411.83,263.93 C418.93,266.34 429.00,271.71 429.00,273.10 C429.00,273.59 429.66,274.00 430.46,274.00 C431.27,274.00 432.41,274.90 433.00,276.00 C433.59,277.10 434.58,278.00 435.20,278.00 C436.62,278.00 453.00,294.08 453.00,295.48 C453.00,296.05 453.90,297.08 455.00,297.77 C456.10,298.45 457.00,299.58 457.00,300.27 C457.00,300.96 457.94,302.11 459.10,302.83 C460.25,303.55 460.93,304.40 460.60,304.73 C460.28,305.05 460.91,305.95 462.01,306.72 C463.10,307.49 464.00,308.76 464.00,309.56 C464.00,310.35 464.45,311.00 465.00,311.00 C465.55,311.00 466.00,311.67 466.00,312.50 C466.00,313.33 466.45,314.00 467.00,314.00 C467.55,314.00 468.00,314.47 468.00,315.04 C468.00,315.61 468.88,317.03 469.97,318.19 C471.05,319.35 471.72,320.64 471.47,321.05 C471.22,321.46 471.71,322.06 472.57,322.39 C473.43,322.72 473.85,323.44 473.50,323.99 C473.16,324.55 473.26,325.00 473.71,325.00 C474.71,325.00 478.61,332.05 478.25,333.20 C478.11,333.64 478.49,334.00 479.08,334.00 C479.68,334.00 480.00,334.51 479.79,335.12 C479.40,336.29 470.73,336.80 461.25,336.22 ZM 544.00 335.74 C544.00,333.55 559.09,309.27 563.49,304.37 C564.04,303.75 565.17,302.18 566.00,300.87 C566.83,299.57 573.58,292.40 581.00,284.95 C592.28,273.63 595.65,270.86 601.50,268.09 C615.66,261.38 624.21,260.30 634.49,263.91 C639.87,265.80 645.61,269.73 644.54,270.79 C644.30,271.04 644.75,271.90 645.56,272.70 C646.36,273.50 646.76,274.57 646.45,275.08 C646.14,275.59 646.41,276.00 647.05,276.00 C647.69,276.00 647.96,276.66 647.65,277.47 C647.34,278.28 647.52,279.20 648.04,279.53 C649.26,280.28 649.30,285.70 648.09,286.44 C647.60,286.75 647.42,287.90 647.71,289.00 C648.00,290.10 647.83,291.00 647.33,291.00 C646.83,291.00 646.35,292.01 646.26,293.24 C646.16,294.46 645.62,295.63 645.04,295.82 C644.47,296.01 644.00,296.80 644.00,297.58 C644.00,298.36 643.55,299.00 643.00,299.00 C642.45,299.00 642.11,299.39 642.25,299.87 C642.62,301.15 627.17,316.00 625.46,316.00 C624.66,316.00 624.00,316.37 624.00,316.82 C624.00,317.64 616.58,321.21 612.25,322.48 C611.01,322.84 610.00,323.55 610.00,324.07 C610.00,324.58 608.88,325.00 607.50,325.00 C606.12,325.00 605.00,325.44 605.00,325.97 C605.00,326.50 604.33,326.68 603.50,326.36 C602.67,326.05 602.00,326.31 602.00,326.95 C602.00,327.59 601.60,327.87 601.12,327.58 C600.64,327.28 598.79,327.75 597.02,328.64 C595.25,329.52 592.39,330.36 590.65,330.51 C588.92,330.66 587.28,330.88 587.00,331.01 C586.72,331.13 586.12,331.17 585.64,331.08 C585.17,331.00 584.18,331.43 583.44,332.05 C582.70,332.67 581.60,332.87 581.00,332.50 C580.40,332.13 579.28,332.36 578.50,333.00 C577.72,333.64 576.60,333.87 576.00,333.50 C575.40,333.13 574.37,333.28 573.71,333.83 C573.04,334.37 571.38,334.87 570.00,334.92 C563.65,335.18 560.42,335.55 559.50,336.13 C557.73,337.24 544.00,336.89 544.00,335.74 Z" fill="rgb(254,254,254)"/>
</g>
</svg>