<svg xmlns="http://www.w3.org/2000/svg" width="1024" height="1024" viewBox="0 0 1024 1024">
<g>
<path d="M 361.59 552.26 C361.91,552.58 362.01,553.67 361.81,554.67 C361.46,556.41 361.41,556.41 360.70,554.61 C359.94,552.69 360.51,551.18 361.59,552.26 Z" fill="rgb(180,150,230)"/>
<path d="M 610.67 631.16 C609.17,633.55 607.94,633.50 607.29,631.00 C607.00,629.90 606.46,629.00 606.10,629.00 C605.73,629.00 605.35,628.03 605.26,626.84 C605.17,625.65 604.74,624.41 604.30,624.09 C603.86,623.77 603.35,622.60 603.16,621.50 C602.97,620.40 602.43,619.36 601.96,619.19 C601.50,619.01 601.34,618.28 601.61,617.56 C601.89,616.85 601.53,615.64 600.81,614.88 C600.09,614.12 599.47,613.05 599.44,612.50 C599.33,610.38 597.75,606.00 597.10,606.00 C596.73,606.00 596.35,604.99 596.26,603.76 C596.16,602.54 595.64,601.38 595.10,601.20 C594.56,601.02 594.36,600.22 594.66,599.44 C594.97,598.65 594.69,598.00 594.05,598.00 C593.41,598.00 593.16,597.55 593.50,597.00 C593.84,596.45 593.66,596.00 593.09,596.00 C592.53,596.00 592.32,595.33 592.64,594.50 C592.95,593.67 592.81,593.00 592.32,593.00 C591.83,593.00 591.35,591.99 591.26,590.76 C591.16,589.54 590.64,588.38 590.10,588.20 C589.56,588.02 589.36,587.22 589.66,586.44 C589.97,585.65 589.72,585.00 589.11,585.00 C588.50,585.00 588.05,584.66 588.12,584.25 C588.18,583.84 588.15,583.28 588.04,583.00 C587.94,582.72 587.65,581.39 587.40,580.04 C587.15,578.69 586.47,577.29 585.89,576.93 C585.31,576.57 584.87,575.99 584.91,575.64 C584.96,575.29 584.97,574.89 584.93,574.75 C584.88,574.61 584.65,573.38 584.40,572.00 C584.15,570.62 583.53,569.36 583.03,569.19 C582.52,569.01 582.36,568.22 582.66,567.44 C582.97,566.65 582.72,566.00 582.11,566.00 C581.50,566.00 581.05,565.66 581.12,565.25 C581.18,564.84 581.15,564.28 581.04,564.00 C580.94,563.72 580.65,562.38 580.40,561.00 C580.15,559.62 579.53,558.36 579.03,558.19 C578.52,558.01 578.36,557.22 578.66,556.44 C578.97,555.65 578.73,555.00 578.14,555.00 C577.55,555.00 577.32,554.33 577.64,553.50 C577.95,552.67 577.81,552.00 577.32,552.00 C576.83,552.00 576.36,551.16 576.29,550.14 C576.21,549.12 575.37,546.53 574.41,544.39 C573.46,542.25 572.58,540.16 572.47,539.75 C572.35,539.34 572.14,538.78 572.00,538.50 C571.86,538.22 571.64,537.55 571.50,537.00 C571.36,536.45 571.16,535.89 571.05,535.75 C570.94,535.61 570.65,534.38 570.40,533.00 C570.15,531.62 569.53,530.36 569.03,530.19 C568.52,530.01 568.36,529.22 568.66,528.44 C568.97,527.65 568.72,527.00 568.11,527.00 C567.50,527.00 567.10,526.66 567.22,526.25 C567.63,524.88 564.76,516.00 563.90,516.00 C563.44,516.00 563.32,515.33 563.64,514.50 C563.95,513.67 563.72,513.00 563.11,513.00 C562.50,513.00 562.05,512.66 562.12,512.25 C562.18,511.84 562.13,511.16 561.99,510.75 C561.73,509.93 561.73,509.93 560.61,505.25 C560.19,503.46 559.44,502.00 558.95,502.00 C558.46,502.00 558.32,501.33 558.64,500.50 C558.95,499.67 558.73,499.00 558.14,499.00 C557.55,499.00 557.32,498.33 557.64,497.50 C557.95,496.67 557.72,496.00 557.11,496.00 C556.50,496.00 556.05,495.66 556.12,495.25 C556.18,494.84 556.13,494.16 555.99,493.75 C555.73,492.93 555.73,492.93 554.61,488.25 C554.19,486.46 553.43,485.00 552.92,485.00 C552.41,485.00 552.05,484.66 552.12,484.25 C552.18,483.84 552.13,483.16 551.99,482.75 C551.86,482.34 551.64,481.55 551.50,481.00 C551.36,480.45 551.14,479.77 551.00,479.50 C550.86,479.23 550.67,478.66 550.57,478.25 C550.47,477.84 550.04,476.04 549.61,474.25 C549.19,472.46 548.44,471.00 547.95,471.00 C547.46,471.00 547.32,470.33 547.64,469.50 C547.95,468.67 547.69,468.00 547.05,468.00 C546.41,468.00 546.14,467.58 546.46,467.07 C546.77,466.56 546.59,465.87 546.06,465.54 C545.53,465.21 545.34,464.28 545.65,463.47 C545.96,462.66 545.72,462.00 545.11,462.00 C544.50,462.00 544.11,461.66 544.25,461.24 C544.67,459.97 539.70,445.00 538.86,445.00 C538.42,445.00 538.32,444.33 538.64,443.50 C538.95,442.67 538.73,442.00 538.14,442.00 C537.55,442.00 537.32,441.33 537.64,440.50 C537.95,439.67 537.72,439.00 537.11,439.00 C536.50,439.00 536.11,438.51 536.25,437.91 C536.39,437.31 535.23,435.85 533.68,434.66 C531.08,432.67 529.49,432.47 513.04,432.17 L 495.23 431.84 L 497.74 441.17 C500.92,452.94 502.78,460.84 504.23,468.63 C505.32,474.52 505.23,475.12 502.10,483.13 C500.30,487.74 498.36,492.85 497.80,494.50 C497.24,496.15 496.15,498.77 495.39,500.33 C494.63,501.89 494.00,503.82 494.00,504.63 C494.00,505.44 493.13,507.89 492.07,510.09 C491.01,512.29 489.85,515.41 489.49,517.03 C489.14,518.65 488.43,520.23 487.92,520.55 C487.42,520.86 487.00,522.00 487.00,523.07 C487.00,524.15 486.57,525.81 486.03,526.76 C485.50,527.72 483.65,532.78 481.92,538.00 C477.72,550.64 465.22,585.98 464.05,588.50 C463.54,589.60 462.82,591.62 462.45,593.00 C462.08,594.38 461.21,596.85 460.52,598.50 C459.83,600.15 457.77,606.00 455.94,611.50 C454.11,617.00 451.83,623.53 450.89,626.00 C449.21,630.37 449.13,630.43 448.21,628.00 C447.69,626.62 447.48,624.94 447.74,624.25 C448.00,623.56 447.81,623.00 447.32,623.00 C446.83,623.00 446.36,622.21 446.29,621.25 C446.21,620.29 445.60,618.15 444.92,616.50 C444.24,614.85 443.77,612.94 443.88,612.25 C444.00,611.56 443.63,611.00 443.08,611.00 C442.52,611.00 442.32,610.33 442.64,609.50 C442.95,608.67 442.83,608.00 442.36,608.00 C441.89,608.00 441.43,606.99 441.35,605.75 C441.26,604.51 440.63,602.15 439.94,600.50 C439.25,598.85 438.77,596.94 438.88,596.25 C439.00,595.56 438.59,595.00 437.98,595.00 C437.38,595.00 437.16,594.55 437.50,594.00 C437.84,593.45 437.77,592.44 437.33,591.75 C436.90,591.06 436.40,589.38 436.21,588.00 C436.03,586.62 435.48,585.36 434.99,585.19 C434.51,585.01 434.34,584.27 434.62,583.54 C434.91,582.80 434.68,581.92 434.11,581.57 C433.55,581.22 433.34,580.28 433.65,579.47 C433.96,578.66 433.73,578.00 433.14,578.00 C432.55,578.00 432.32,577.33 432.64,576.50 C432.95,575.67 432.77,575.00 432.22,575.00 C431.67,575.00 431.27,574.44 431.32,573.75 C431.49,571.44 429.79,565.00 429.00,565.00 C428.57,565.00 428.27,564.44 428.32,563.75 C428.50,561.33 426.77,555.00 425.92,555.00 C425.45,555.00 425.32,554.33 425.64,553.50 C425.96,552.67 425.67,552.00 425.00,552.00 C424.33,552.00 424.03,551.37 424.32,550.60 C424.62,549.83 424.56,548.89 424.18,548.51 C423.81,548.14 423.44,547.42 423.38,546.92 C423.31,546.41 423.16,545.89 423.06,545.75 C422.95,545.61 422.66,543.92 422.42,542.00 C422.17,540.08 421.52,538.35 420.98,538.16 C420.43,537.98 420.25,537.40 420.58,536.87 C420.91,536.34 420.63,535.26 419.96,534.46 C419.30,533.66 419.09,533.00 419.50,533.00 C419.91,533.00 419.74,532.40 419.13,531.66 C418.52,530.92 418.25,530.08 418.54,529.80 C418.82,529.51 418.52,527.98 417.87,526.39 C417.21,524.80 416.77,522.94 416.88,522.25 C417.00,521.56 416.73,521.00 416.29,521.00 C415.86,521.00 415.40,519.54 415.27,517.76 C415.15,515.97 414.58,514.36 414.01,514.17 C413.45,513.98 413.22,513.46 413.50,513.00 C413.78,512.54 413.49,510.89 412.85,509.33 C412.20,507.78 411.77,505.94 411.88,505.25 C412.00,504.56 411.59,504.00 410.98,504.00 C410.38,504.00 410.11,503.63 410.39,503.17 C410.86,502.41 408.90,494.63 407.33,491.00 C406.98,490.17 406.78,488.94 406.89,488.25 C407.00,487.56 406.59,487.00 405.98,487.00 C405.38,487.00 405.14,486.59 405.45,486.08 C405.76,485.58 405.49,483.89 404.85,482.33 C404.20,480.78 403.77,478.94 403.88,478.25 C404.00,477.56 403.63,477.00 403.08,477.00 C402.52,477.00 402.32,476.33 402.64,475.50 C402.95,474.67 402.73,474.00 402.14,474.00 C401.55,474.00 401.30,473.37 401.60,472.60 C401.89,471.83 401.65,470.90 401.05,470.53 C400.46,470.16 400.21,469.47 400.50,469.00 C400.79,468.53 400.59,467.87 400.06,467.54 C399.53,467.21 399.34,466.28 399.65,465.47 C399.96,464.66 399.69,464.00 399.05,464.00 C398.41,464.00 398.13,463.61 398.42,463.12 C399.04,462.12 396.24,451.95 394.99,450.63 C394.53,450.15 394.39,449.14 394.69,448.38 C394.98,447.62 394.83,447.00 394.36,447.00 C393.89,447.00 393.43,445.78 393.34,444.28 C393.26,442.78 392.69,441.40 392.09,441.20 C391.48,440.99 391.21,440.47 391.48,440.04 C392.09,439.05 388.12,434.70 385.48,433.47 C384.39,432.96 363.92,432.29 340.00,431.99 C301.41,431.50 296.07,431.24 292.71,429.69 C290.62,428.72 288.64,427.16 288.30,426.22 C287.96,425.27 287.22,423.90 286.65,423.17 C286.08,422.43 285.46,420.86 285.28,419.67 C284.72,416.06 284.97,378.86 285.56,377.90 C285.87,377.40 285.84,376.55 285.50,376.00 C285.16,375.45 285.39,375.00 286.00,375.00 C286.61,375.00 286.84,374.55 286.50,374.00 C286.16,373.45 286.36,373.00 286.94,373.00 C287.52,373.00 288.02,372.44 288.04,371.75 C288.08,370.10 294.86,365.00 296.99,365.00 C297.91,365.00 298.92,364.75 299.23,364.43 C299.54,364.12 324.26,363.90 354.15,363.94 C404.66,364.00 415.72,363.51 409.47,361.46 C405.61,360.20 403.43,359.32 398.00,356.84 C386.02,351.38 380.53,348.53 379.00,347.00 C378.73,346.72 377.26,345.86 375.75,345.08 C374.24,344.30 373.00,343.29 373.00,342.83 C373.00,342.37 372.43,342.00 371.72,342.00 C371.02,342.00 369.72,341.21 368.82,340.25 C367.93,339.29 364.27,335.67 360.69,332.20 C357.11,328.74 353.93,325.25 353.62,324.45 C353.31,323.65 352.60,323.00 352.03,323.00 C351.46,323.00 351.00,322.31 351.00,321.47 C351.00,320.63 350.33,319.68 349.51,319.36 C348.68,319.05 348.26,318.39 348.56,317.90 C348.87,317.40 348.64,317.00 348.06,317.00 C347.48,317.00 347.00,316.33 347.00,315.50 C347.00,314.67 346.52,314.00 345.94,314.00 C345.36,314.00 345.16,313.55 345.50,313.00 C345.84,312.45 345.61,312.00 345.00,312.00 C344.39,312.00 344.16,311.55 344.50,311.00 C344.84,310.45 344.61,310.00 344.00,310.00 C343.39,310.00 343.16,309.55 343.50,309.00 C343.84,308.45 343.74,308.00 343.27,308.00 C342.81,308.00 342.35,306.99 342.26,305.76 C342.16,304.54 341.64,303.38 341.10,303.20 C340.56,303.02 340.36,302.22 340.66,301.44 C340.97,300.65 340.73,300.00 340.14,300.00 C339.55,300.00 339.30,299.37 339.60,298.60 C339.89,297.83 339.68,296.92 339.11,296.57 C338.55,296.22 338.33,295.30 338.63,294.52 C338.93,293.73 338.88,292.62 338.52,292.03 C337.60,290.55 337.54,273.55 338.44,272.09 C338.85,271.44 338.93,270.27 338.63,269.48 C338.33,268.70 338.55,267.78 339.11,267.43 C339.68,267.08 339.89,266.17 339.60,265.40 C339.30,264.63 339.55,264.00 340.14,264.00 C340.73,264.00 340.95,263.33 340.64,262.50 C340.32,261.67 340.53,261.00 341.09,261.00 C341.66,261.00 341.84,260.55 341.50,260.00 C341.16,259.45 341.31,259.00 341.84,259.00 C342.70,259.00 344.60,254.91 344.79,252.66 C344.83,252.20 345.68,251.20 346.68,250.44 C347.68,249.68 348.10,249.05 347.62,249.03 C347.13,249.01 347.92,248.07 349.37,246.93 C350.81,245.79 352.00,244.32 352.01,243.68 C352.02,243.03 353.18,241.60 354.60,240.50 C356.02,239.40 358.28,237.49 359.63,236.25 C360.99,235.01 362.48,234.00 362.96,234.00 C363.44,234.00 363.98,233.66 364.17,233.25 C364.77,231.90 377.09,225.94 378.06,226.54 C378.58,226.86 379.00,226.71 379.00,226.21 C379.00,225.71 380.34,225.27 381.99,225.22 C383.63,225.17 385.54,224.77 386.24,224.33 C386.93,223.89 388.62,223.46 390.00,223.38 C391.38,223.30 394.85,222.89 397.73,222.48 C401.44,221.95 403.41,222.09 404.48,222.99 C405.39,223.74 407.21,224.01 409.00,223.65 C410.86,223.28 412.00,223.46 412.00,224.13 C412.00,224.79 412.99,224.97 414.50,224.59 C416.06,224.20 417.00,224.39 417.00,225.09 C417.00,225.71 417.67,225.95 418.50,225.64 C419.33,225.32 420.00,225.55 420.00,226.14 C420.00,226.73 420.65,226.97 421.44,226.66 C422.22,226.36 423.02,226.56 423.20,227.10 C423.38,227.64 424.54,228.16 425.76,228.26 C426.99,228.35 428.00,228.73 428.00,229.10 C428.00,229.47 429.58,230.07 431.50,230.43 C433.42,230.80 435.00,231.51 435.00,232.03 C435.00,232.54 436.12,233.24 437.50,233.59 C438.88,233.93 440.00,234.62 440.00,235.11 C440.00,235.60 440.47,236.00 441.04,236.00 C441.61,236.00 443.05,236.90 444.23,238.00 C445.41,239.10 446.92,240.00 447.58,240.00 C448.24,240.00 449.06,240.70 449.39,241.56 C449.72,242.42 450.44,242.85 450.99,242.50 C451.55,242.16 452.00,242.37 452.00,242.97 C452.00,243.57 452.79,244.39 453.75,244.80 C455.86,245.68 461.22,250.40 469.33,258.50 C474.63,263.79 478.14,267.85 486.77,278.66 C491.04,284.01 502.31,301.30 506.98,309.67 C511.44,317.65 511.73,317.95 513.33,316.19 C514.25,315.17 515.00,313.80 515.00,313.13 C515.00,312.46 515.88,310.97 516.97,309.81 C518.05,308.65 518.69,307.32 518.41,306.85 C518.12,306.38 518.39,306.00 519.00,306.00 C519.61,306.00 519.87,305.60 519.56,305.10 C519.26,304.61 519.71,303.94 520.57,303.61 C521.43,303.28 521.85,302.56 521.50,302.01 C521.16,301.45 521.36,301.00 521.94,301.00 C522.52,301.00 523.00,300.53 523.00,299.96 C523.00,299.39 523.83,298.03 524.84,296.94 C525.85,295.86 527.31,293.74 528.09,292.23 C528.86,290.73 530.07,289.13 530.77,288.69 C531.47,288.24 531.81,287.50 531.53,287.04 C531.24,286.58 531.68,285.95 532.51,285.64 C533.33,285.32 534.00,284.42 534.00,283.64 C534.00,282.85 534.74,281.93 535.64,281.58 C536.55,281.24 537.00,280.67 536.65,280.32 C536.30,279.97 536.91,279.05 538.01,278.28 C539.10,277.51 540.00,276.35 540.00,275.68 C540.00,275.02 540.90,273.92 542.00,273.23 C543.10,272.55 544.00,271.57 544.00,271.08 C544.00,268.81 566.93,246.00 569.21,246.00 C569.68,246.00 570.32,245.32 570.64,244.50 C570.95,243.68 571.85,243.00 572.64,243.00 C573.42,243.00 574.32,242.32 574.64,241.50 C574.95,240.68 575.84,240.00 576.61,240.00 C577.37,240.00 578.00,239.55 578.00,239.00 C578.00,238.45 578.67,238.00 579.50,238.00 C580.33,238.00 581.90,237.10 583.00,236.00 C584.10,234.90 585.65,234.00 586.44,234.00 C587.23,234.00 588.13,233.60 588.44,233.10 C589.34,231.64 596.90,228.00 599.03,228.00 C600.11,228.00 601.00,227.50 601.00,226.89 C601.00,226.28 601.67,226.05 602.50,226.36 C603.33,226.68 604.00,226.45 604.00,225.86 C604.00,225.27 604.65,225.04 605.44,225.34 C606.24,225.64 608.37,225.42 610.19,224.85 C614.25,223.57 638.00,223.07 638.00,224.27 C638.00,224.75 638.90,224.85 640.00,224.50 C641.22,224.11 642.00,224.32 642.00,225.04 C642.00,225.69 642.67,225.95 643.50,225.64 C644.33,225.32 645.00,225.50 645.00,226.03 C645.00,226.56 645.51,227.00 646.12,227.00 C648.29,227.00 659.52,232.47 661.99,234.73 C663.36,235.98 664.75,237.00 665.07,237.00 C666.07,237.00 673.39,244.28 676.14,248.00 C684.21,258.95 687.50,270.34 686.68,284.50 C685.84,298.92 680.50,313.25 672.51,322.50 C665.63,330.46 653.55,342.00 652.08,342.00 C651.58,342.00 651.02,342.36 650.83,342.80 C650.28,344.14 638.20,351.12 626.04,357.14 L 614.59 362.80 L 620.04 363.45 C623.04,363.81 647.66,363.97 674.75,363.80 C701.84,363.64 724.00,363.89 724.00,364.36 C724.00,364.83 724.67,364.95 725.50,364.64 C726.33,364.32 727.00,364.50 727.00,365.03 C727.00,365.56 727.71,366.00 728.57,366.00 C730.96,366.00 736.85,372.81 737.98,376.88 C738.54,378.87 738.99,389.18 738.99,399.80 C739.00,420.39 738.51,422.89 733.57,427.50 C728.85,431.90 727.79,432.00 685.95,432.00 C646.24,432.00 646.00,432.01 646.00,434.07 C646.00,438.37 651.79,445.40 654.48,444.37 C655.21,444.09 656.10,444.35 656.47,444.95 C656.84,445.54 657.56,445.77 658.07,445.46 C658.58,445.14 659.00,445.39 659.00,446.00 C659.00,446.61 659.45,446.84 660.00,446.50 C660.55,446.16 661.00,446.39 661.00,447.00 C661.00,447.61 661.41,447.86 661.92,447.55 C663.23,446.74 666.80,451.61 668.12,455.99 C669.31,459.97 667.96,467.64 664.43,477.00 C662.06,483.29 652.48,510.88 649.33,520.50 C647.89,524.90 646.48,529.17 646.19,530.00 C645.91,530.83 645.60,531.72 645.50,532.00 C645.40,532.28 645.06,533.17 644.74,534.00 C644.41,534.83 641.66,542.92 638.61,552.00 C633.40,567.54 623.74,595.49 615.49,618.91 C613.47,624.63 611.30,630.15 610.67,631.16 Z" fill="rgb(167,139,250)"/>
</g>
</svg>
